<?xml version="1.0" encoding="utf-8" standalone="no"?>
<!DOCTYPE svg PUBLIC "-//W3C//DTD SVG 1.1//EN"
  "http://www.w3.org/Graphics/SVG/1.1/DTD/svg11.dtd">
<svg xmlns:xlink="http://www.w3.org/1999/xlink" width="254.16pt" height="223.2pt" viewBox="0 0 254.16 223.2" xmlns="http://www.w3.org/2000/svg" version="1.1">
 <metadata>
  <rdf:RDF xmlns:dc="http://purl.org/dc/elements/1.1/" xmlns:cc="http://creativecommons.org/ns#" xmlns:rdf="http://www.w3.org/1999/02/22-rdf-syntax-ns#">
   <cc:Work>
    <dc:type rdf:resource="http://purl.org/dc/dcmitype/StillImage"/>
    <dc:date>2026-04-30T17:42:03.937037</dc:date>
    <dc:format>image/svg+xml</dc:format>
    <dc:creator>
     <cc:Agent>
      <dc:title>Matplotlib v3.10.3, https://matplotlib.org/</dc:title>
     </cc:Agent>
    </dc:creator>
   </cc:Work>
  </rdf:RDF>
 </metadata>
 <defs>
  <style type="text/css">*{stroke-linejoin: round; stroke-linecap: butt}</style>
 </defs>
 <g id="figure_1">
  <g id="patch_1">
   <path d="M 0 223.2 
L 254.16 223.2 
L 254.16 0 
L 0 0 
z
" style="fill: #ffffff"/>
  </g>
  <g id="axes_1">
   <g id="patch_2">
    <path d="M 46.942755 178.9408 
L 242.28 178.9408 
L 242.28 26.232665 
L 46.942755 26.232665 
z
" style="fill: #ffffff"/>
   </g>
   <g id="matplotlib.axis_1">
    <g id="xtick_1">
     <g id="line2d_1">
      <defs>
       <path id="mcea04c6530" d="M 0 0 
L 0 6 
" style="stroke: #000000"/>
      </defs>
      <g>
       <use xlink:href="#mcea04c6530" x="46.942755" y="178.9408" style="stroke: #000000"/>
      </g>
     </g>
     <g id="text_1">
      <!-- $\mathdefault{0.0}$ -->
      <g transform="translate(41.05512 194.617634) scale(0.09 -0.09)">
       <defs>
        <path id="LMRoman17-Regular-30" d="M 2688 2025 
C 2688 2416 2682 3080 2413 3591 
C 2176 4039 1798 4198 1466 4198 
C 1158 4198 768 4058 525 3597 
C 269 3118 243 2524 243 2025 
C 243 1661 250 1106 448 619 
C 723 -39 1216 -128 1466 -128 
C 1760 -128 2208 -7 2470 600 
C 2662 1042 2688 1559 2688 2025 
z
M 2278 2096 
C 2278 1680 2278 1169 2202 792 
C 2067 95 1690 -26 1466 -26 
C 1056 -26 813 325 723 812 
C 653 1188 653 1738 653 2096 
C 653 2588 653 2997 736 3387 
C 858 3929 1216 4096 1466 4096 
C 1728 4096 2067 3923 2189 3400 
C 2272 3036 2278 2607 2278 2096 
z
" transform="scale(0.015625)"/>
        <path id="LMMathItalic12-Regular-3a" d="M 1178 307 
C 1178 492 1024 619 870 619 
C 685 619 557 466 557 313 
C 557 128 710 0 864 0 
C 1050 0 1178 153 1178 307 
z
" transform="scale(0.015625)"/>
       </defs>
       <use xlink:href="#LMRoman17-Regular-30" transform="scale(0.996264)"/>
       <use xlink:href="#LMMathItalic12-Regular-3a" transform="translate(45.690948 0) scale(0.996264)"/>
       <use xlink:href="#LMRoman17-Regular-30" transform="translate(72.788125 0) scale(0.996264)"/>
      </g>
     </g>
    </g>
    <g id="xtick_2">
     <g id="line2d_2">
      <g>
       <use xlink:href="#mcea04c6530" x="74.848076" y="178.9408" style="stroke: #000000"/>
      </g>
     </g>
     <g id="text_2">
      <!-- $\mathdefault{0.5}$ -->
      <g transform="translate(68.960441 194.617634) scale(0.09 -0.09)">
       <defs>
        <path id="LMRoman17-Regular-35" d="M 2669 1264 
C 2669 2030 2170 2624 1549 2624 
C 1222 2624 947 2503 730 2274 
L 730 3692 
C 794 3666 1056 3584 1325 3584 
C 1920 3584 2246 3911 2432 4100 
C 2432 4157 2432 4192 2394 4192 
C 2394 4192 2374 4192 2323 4163 
C 2099 4058 1837 3973 1517 3973 
C 1325 3973 1037 3999 723 4139 
C 653 4171 634 4171 634 4171 
C 602 4171 595 4164 595 4037 
L 595 2203 
C 595 2089 595 2057 659 2057 
C 691 2057 704 2070 736 2114 
C 941 2401 1222 2522 1542 2522 
C 1766 2522 2246 2382 2246 1289 
C 2246 1085 2246 715 2054 421 
C 1894 159 1645 25 1370 25 
C 947 25 518 320 403 814 
C 429 807 480 795 506 795 
C 589 795 749 840 749 1038 
C 749 1210 627 1280 506 1280 
C 358 1280 262 1190 262 1011 
C 262 454 704 -128 1382 -128 
C 2042 -128 2669 440 2669 1264 
z
" transform="scale(0.015625)"/>
       </defs>
       <use xlink:href="#LMRoman17-Regular-30" transform="scale(0.996264)"/>
       <use xlink:href="#LMMathItalic12-Regular-3a" transform="translate(45.690948 0) scale(0.996264)"/>
       <use xlink:href="#LMRoman17-Regular-35" transform="translate(72.788125 0) scale(0.996264)"/>
      </g>
     </g>
    </g>
    <g id="xtick_3">
     <g id="line2d_3">
      <g>
       <use xlink:href="#mcea04c6530" x="102.753397" y="178.9408" style="stroke: #000000"/>
      </g>
     </g>
     <g id="text_3">
      <!-- $\mathdefault{1.0}$ -->
      <g transform="translate(96.865762 194.617634) scale(0.09 -0.09)">
       <defs>
        <path id="LMRoman17-Regular-31" d="M 2458 0 
L 2458 160 
L 2266 160 
C 1715 160 1702 230 1702 458 
L 1702 4058 
C 1702 4192 1696 4192 1606 4192 
C 1357 3916 979 3827 621 3827 
C 602 3827 570 3827 563 3808 
C 557 3795 557 3782 557 3648 
C 755 3648 1088 3686 1344 3839 
L 1344 461 
C 1344 236 1331 160 781 160 
L 589 160 
L 589 0 
L 1523 0 
L 2458 0 
z
" transform="scale(0.015625)"/>
       </defs>
       <use xlink:href="#LMRoman17-Regular-31" transform="scale(0.996264)"/>
       <use xlink:href="#LMMathItalic12-Regular-3a" transform="translate(45.690948 0) scale(0.996264)"/>
       <use xlink:href="#LMRoman17-Regular-30" transform="translate(72.788125 0) scale(0.996264)"/>
      </g>
     </g>
    </g>
    <g id="xtick_4">
     <g id="line2d_4">
      <g>
       <use xlink:href="#mcea04c6530" x="130.658717" y="178.9408" style="stroke: #000000"/>
      </g>
     </g>
     <g id="text_4">
      <!-- $\mathdefault{1.5}$ -->
      <g transform="translate(124.771082 194.617634) scale(0.09 -0.09)">
       <use xlink:href="#LMRoman17-Regular-31" transform="scale(0.996264)"/>
       <use xlink:href="#LMMathItalic12-Regular-3a" transform="translate(45.690948 0) scale(0.996264)"/>
       <use xlink:href="#LMRoman17-Regular-35" transform="translate(72.788125 0) scale(0.996264)"/>
      </g>
     </g>
    </g>
    <g id="xtick_5">
     <g id="line2d_5">
      <g>
       <use xlink:href="#mcea04c6530" x="158.564038" y="178.9408" style="stroke: #000000"/>
      </g>
     </g>
     <g id="text_5">
      <!-- $\mathdefault{2.0}$ -->
      <g transform="translate(152.676403 194.617634) scale(0.09 -0.09)">
       <defs>
        <path id="LMRoman17-Regular-32" d="M 2669 989 
L 2554 989 
C 2490 536 2438 459 2413 420 
C 2381 369 1920 369 1830 369 
L 602 369 
L 1824 1597 
C 2214 1967 2669 2402 2669 3035 
C 2669 3790 2067 4224 1395 4224 
C 691 4224 262 3604 262 3030 
C 262 2780 448 2748 525 2748 
C 589 2748 781 2787 781 3010 
C 781 3207 614 3264 525 3264 
C 486 3264 448 3258 422 3245 
C 544 3790 915 4058 1306 4058 
C 1862 4058 2227 3617 2227 3035 
C 2227 2479 1901 2000 1536 1584 
L 262 146 
L 262 0 
L 2515 0 
L 2669 989 
z
" transform="scale(0.015625)"/>
       </defs>
       <use xlink:href="#LMRoman17-Regular-32" transform="scale(0.996264)"/>
       <use xlink:href="#LMMathItalic12-Regular-3a" transform="translate(45.690948 0) scale(0.996264)"/>
       <use xlink:href="#LMRoman17-Regular-30" transform="translate(72.788125 0) scale(0.996264)"/>
      </g>
     </g>
    </g>
    <g id="xtick_6">
     <g id="line2d_6">
      <g>
       <use xlink:href="#mcea04c6530" x="186.469359" y="178.9408" style="stroke: #000000"/>
      </g>
     </g>
     <g id="text_6">
      <!-- $\mathdefault{2.5}$ -->
      <g transform="translate(180.581724 194.617634) scale(0.09 -0.09)">
       <use xlink:href="#LMRoman17-Regular-32" transform="scale(0.996264)"/>
       <use xlink:href="#LMMathItalic12-Regular-3a" transform="translate(45.690948 0) scale(0.996264)"/>
       <use xlink:href="#LMRoman17-Regular-35" transform="translate(72.788125 0) scale(0.996264)"/>
      </g>
     </g>
    </g>
    <g id="xtick_7">
     <g id="line2d_7">
      <g>
       <use xlink:href="#mcea04c6530" x="214.374679" y="178.9408" style="stroke: #000000"/>
      </g>
     </g>
     <g id="text_7">
      <!-- $\mathdefault{3.0}$ -->
      <g transform="translate(208.487044 194.617634) scale(0.09 -0.09)">
       <defs>
        <path id="LMRoman17-Regular-33" d="M 2720 1085 
C 2720 1707 2208 2157 1600 2227 
C 2086 2328 2554 2756 2554 3329 
C 2554 3820 2048 4179 1472 4179 
C 890 4179 378 3829 378 3329 
C 378 3110 544 3072 627 3072 
C 762 3072 877 3155 877 3321 
C 877 3486 762 3569 627 3569 
C 602 3569 570 3569 544 3557 
C 730 3959 1235 4032 1459 4032 
C 1683 4032 2106 3925 2106 3320 
C 2106 3143 2080 2828 1862 2550 
C 1670 2304 1453 2304 1242 2284 
C 1210 2284 1062 2269 1037 2269 
C 992 2263 966 2257 966 2208 
C 966 2163 973 2157 1101 2157 
L 1414 2157 
C 1984 2157 2234 1662 2234 1090 
C 2234 320 1824 25 1453 25 
C 1114 25 563 194 390 693 
C 422 680 454 680 486 680 
C 640 680 755 782 755 948 
C 755 1133 614 1216 486 1216 
C 378 1216 211 1165 211 926 
C 211 335 787 -128 1466 -128 
C 2176 -128 2720 430 2720 1085 
z
" transform="scale(0.015625)"/>
       </defs>
       <use xlink:href="#LMRoman17-Regular-33" transform="scale(0.996264)"/>
       <use xlink:href="#LMMathItalic12-Regular-3a" transform="translate(45.690948 0) scale(0.996264)"/>
       <use xlink:href="#LMRoman17-Regular-30" transform="translate(72.788125 0) scale(0.996264)"/>
      </g>
     </g>
    </g>
    <g id="xtick_8">
     <g id="line2d_8">
      <g>
       <use xlink:href="#mcea04c6530" x="242.28" y="178.9408" style="stroke: #000000"/>
      </g>
     </g>
     <g id="text_8">
      <!-- $\mathdefault{3.5}$ -->
      <g transform="translate(236.392365 194.617634) scale(0.09 -0.09)">
       <use xlink:href="#LMRoman17-Regular-33" transform="scale(0.996264)"/>
       <use xlink:href="#LMMathItalic12-Regular-3a" transform="translate(45.690948 0) scale(0.996264)"/>
       <use xlink:href="#LMRoman17-Regular-35" transform="translate(72.788125 0) scale(0.996264)"/>
      </g>
     </g>
    </g>
    <g id="text_9">
     <!-- $\epsilon_0/U$ -->
     <g transform="translate(133.831779 208.580274) scale(0.11 -0.11)">
      <defs>
       <path id="LMMathItalic12-Regular-f" d="M 2221 258 
C 2221 296 2202 336 2163 336 
C 2144 336 2131 329 2099 304 
C 1856 142 1619 64 1427 64 
C 1088 64 730 290 730 918 
C 730 1040 742 1208 800 1467 
L 1862 1467 
C 1958 1467 2067 1467 2067 1569 
C 2067 1652 2003 1652 1888 1652 
L 851 1652 
C 1011 2226 1389 2573 1958 2573 
L 2144 2573 
C 2253 2573 2349 2573 2349 2675 
C 2349 2758 2278 2758 2163 2758 
L 1946 2758 
C 1158 2758 294 2131 294 1126 
C 294 416 774 -64 1408 -64 
C 1818 -64 2221 194 2221 258 
z
" transform="scale(0.015625)"/>
       <path id="LMMathItalic12-Regular-3d" d="M 2784 4678 
C 2784 4755 2720 4800 2669 4800 
C 2637 4800 2579 4800 2528 4659 
L 384 -1363 
L 346 -1478 
C 346 -1555 410 -1600 461 -1600 
C 499 -1600 557 -1593 602 -1459 
L 2746 4563 
L 2784 4678 
z
" transform="scale(0.015625)"/>
       <path id="LMMathItalic12-Regular-55" d="M 4730 4279 
C 4730 4352 4672 4352 4646 4352 
C 4557 4352 4442 4352 4352 4352 
L 4051 4352 
C 3654 4352 3443 4352 3443 4352 
C 3405 4352 3328 4352 3328 4226 
C 3328 4160 3379 4160 3424 4160 
C 3808 4160 3834 4013 3834 3899 
C 3834 3842 3834 3822 3808 3733 
L 3238 1472 
C 3014 580 2272 57 1670 57 
C 1210 57 896 362 896 889 
C 896 914 896 1105 966 1385 
L 1594 3881 
C 1651 4096 1664 4160 2118 4160 
C 2234 4160 2298 4160 2298 4279 
C 2298 4352 2240 4352 2202 4352 
C 2086 4352 1952 4352 1830 4352 
L 1075 4352 
C 954 4352 819 4352 698 4352 
C 653 4352 576 4352 576 4226 
C 576 4160 621 4160 742 4160 
C 1126 4160 1126 4112 1126 4045 
C 1126 4007 1082 3823 1050 3714 
L 493 1488 
C 474 1418 435 1246 435 1074 
C 435 374 941 -128 1638 -128 
C 2285 -128 3002 383 3328 1195 
C 3373 1303 3430 1527 3469 1699 
L 3712 2658 
L 3955 3617 
C 4038 3949 4090 4160 4653 4160 
C 4704 4166 4730 4219 4730 4279 
z
" transform="scale(0.015625)"/>
      </defs>
      <use xlink:href="#LMMathItalic12-Regular-f" transform="scale(0.996264)"/>
      <use xlink:href="#LMRoman17-Regular-30" transform="translate(39.388958 -14.943915) scale(0.697382)"/>
      <use xlink:href="#LMMathItalic12-Regular-3d" transform="translate(71.870607 0) scale(0.996264)"/>
      <use xlink:href="#LMMathItalic12-Regular-55" transform="translate(120.645525 0) scale(0.996264)"/>
     </g>
    </g>
   </g>
   <g id="matplotlib.axis_2">
    <g id="ytick_1">
     <g id="line2d_9">
      <defs>
       <path id="m0f4c4a7821" d="M 0 0 
L -6 0 
" style="stroke: #000000"/>
      </defs>
      <g>
       <use xlink:href="#m0f4c4a7821" x="46.942755" y="174.168671" style="stroke: #000000"/>
      </g>
     </g>
     <g id="text_10">
      <!-- $\mathdefault{0}$ -->
      <g transform="translate(32.835034 177.257088) scale(0.09 -0.09)">
       <use xlink:href="#LMRoman17-Regular-30" transform="scale(0.996264)"/>
      </g>
     </g>
    </g>
    <g id="ytick_2">
     <g id="line2d_10">
      <g>
       <use xlink:href="#m0f4c4a7821" x="46.942755" y="126.447379" style="stroke: #000000"/>
      </g>
     </g>
     <g id="text_11">
      <!-- $\mathdefault{1}$ -->
      <g transform="translate(32.835034 129.535796) scale(0.09 -0.09)">
       <use xlink:href="#LMRoman17-Regular-31" transform="scale(0.996264)"/>
      </g>
     </g>
    </g>
    <g id="ytick_3">
     <g id="line2d_11">
      <g>
       <use xlink:href="#m0f4c4a7821" x="46.942755" y="78.726086" style="stroke: #000000"/>
      </g>
     </g>
     <g id="text_12">
      <!-- $\mathdefault{2}$ -->
      <g transform="translate(32.835034 81.814503) scale(0.09 -0.09)">
       <use xlink:href="#LMRoman17-Regular-32" transform="scale(0.996264)"/>
      </g>
     </g>
    </g>
    <g id="ytick_4">
     <g id="line2d_12">
      <g>
       <use xlink:href="#m0f4c4a7821" x="46.942755" y="31.004794" style="stroke: #000000"/>
      </g>
     </g>
     <g id="text_13">
      <!-- $\mathdefault{3}$ -->
      <g transform="translate(32.835034 34.093211) scale(0.09 -0.09)">
       <use xlink:href="#LMRoman17-Regular-33" transform="scale(0.996264)"/>
      </g>
     </g>
    </g>
    <g id="text_14">
     <!-- $Q$ -->
     <g transform="translate(26.704155 106.836049) rotate(-90) scale(0.11 -0.11)">
      <defs>
       <path id="LMMathItalic12-Regular-51" d="M 4051 2 
C 4051 39 4026 64 3994 64 
C 3955 64 3942 34 3923 -36 
C 3782 -429 3450 -654 3168 -654 
C 2842 -654 2758 -435 2726 45 
C 3827 490 4646 1663 4646 2829 
C 4646 3893 3955 4544 3059 4544 
C 1690 4544 307 3062 307 1573 
C 307 561 973 -128 1901 -128 
C 2118 -128 2330 -96 2534 -33 
C 2496 -411 2496 -442 2496 -562 
C 2496 -744 2496 -1216 3008 -1216 
C 3770 -1216 4051 -37 4051 2 
z
M 4134 3024 
C 4134 2547 3910 948 2707 240 
C 2675 571 2586 960 2163 960 
C 1818 960 1523 609 1523 291 
C 1523 220 1549 123 1574 77 
C 1069 252 826 787 826 1379 
C 826 1831 992 2689 1414 3340 
C 1888 4075 2522 4404 3021 4404 
C 3686 4404 4134 3862 4134 3024 
z
M 2547 156 
C 2317 52 2118 12 1939 12 
C 1875 12 1651 12 1651 298 
C 1651 533 1875 832 2163 832 
C 2483 832 2554 611 2554 286 
C 2554 246 2554 194 2547 156 
z
" transform="scale(0.015625)"/>
      </defs>
      <use xlink:href="#LMMathItalic12-Regular-51" transform="scale(0.996264)"/>
     </g>
    </g>
   </g>
   <g id="line2d_13">
    <path d="M 35.780627 30.828074 
L 39.280616 30.954435 
L 42.780606 30.991088 
L 46.280595 31.003238 
L 49.780585 31.012602 
L 53.280574 31.035932 
L 56.780563 31.114835 
L 60.280553 31.388604 
L 63.780542 32.323745 
L 67.280531 35.329917 
L 70.780521 43.372407 
L 74.28051 57.372591 
L 77.7805 70.145202 
L 81.280489 77.306905 
L 84.780478 82.899731 
L 88.280468 92.508035 
L 91.780457 107.086855 
L 95.280446 119.142289 
L 98.780436 125.757835 
L 102.280425 131.592956 
L 105.780415 142.014704 
L 109.280404 156.64129 
L 112.780393 167.403179 
L 116.280383 172.0221 
L 119.780372 173.536024 
L 123.280361 173.986462 
L 126.780351 174.116546 
L 130.28034 174.153788 
L 133.78033 174.164424 
L 137.280319 174.167459 
L 140.780308 174.168325 
L 144.280298 174.168572 
L 147.780287 174.168643 
L 151.280276 174.168663 
L 154.780266 174.168669 
L 158.280255 174.16867 
L 161.780244 174.168671 
L 165.280234 174.168671 
L 168.780223 174.168671 
L 172.280213 174.168671 
L 175.780202 174.168671 
L 179.280191 174.168671 
L 182.780181 174.168671 
L 186.28017 174.168671 
L 189.780159 174.168671 
L 193.280149 174.168671 
L 196.780138 174.168671 
L 200.280128 174.168671 
L 203.780117 174.168671 
L 207.280106 174.168671 
L 210.780096 174.168671 
L 214.280085 174.168671 
L 217.780074 174.168671 
L 221.280064 174.168671 
L 224.780053 174.168671 
L 228.280043 174.168671 
L 231.780032 174.168671 
L 235.280021 174.168671 
L 238.780011 174.168671 
L 242.28 174.168671 
" clip-path="url(#p826662d707)" style="fill: none; stroke: #450559; stroke-width: 2.5; stroke-linecap: square"/>
   </g>
   <g id="line2d_14">
    <path d="M 35.780627 30.654362 
L 39.280616 30.904326 
L 42.780606 30.977402 
L 46.280595 31.001682 
L 49.780585 31.020402 
L 53.280574 31.066973 
L 56.780563 31.223702 
L 60.280553 31.758464 
L 63.780542 33.489027 
L 67.280531 38.28796 
L 70.780521 47.978838 
L 74.28051 60.585607 
L 77.7805 71.038859 
L 81.280489 77.396388 
L 84.780478 82.574493 
L 88.280468 90.611786 
L 91.780457 102.28147 
L 95.280446 113.870412 
L 98.780436 121.955495 
L 102.280425 127.091364 
L 105.780415 132.66267 
L 109.280404 141.081501 
L 112.780393 151.00348 
L 116.280383 159.58921 
L 119.780372 165.615232 
L 123.280361 169.356084 
L 126.780351 171.524211 
L 130.28034 172.734408 
L 133.78033 173.396282 
L 137.280319 173.75433 
L 140.780308 173.946905 
L 144.280298 174.050196 
L 147.780287 174.105583 
L 151.280276 174.135392 
L 154.780266 174.151633 
L 158.280255 174.160645 
L 161.780244 174.165457 
L 165.280234 174.167593 
L 168.780223 174.168345 
L 172.280213 174.168576 
L 175.780202 174.168644 
L 179.280191 174.168663 
L 182.780181 174.168669 
L 186.28017 174.16867 
L 189.780159 174.168671 
L 193.280149 174.168671 
L 196.780138 174.168671 
L 200.280128 174.168671 
L 203.780117 174.168671 
L 207.280106 174.168671 
L 210.780096 174.168671 
L 214.280085 174.168671 
L 217.780074 174.168671 
L 221.280064 174.168671 
L 224.780053 174.168671 
L 228.280043 174.168671 
L 231.780032 174.168671 
L 235.280021 174.168671 
L 238.780011 174.168671 
L 242.28 174.168671 
" clip-path="url(#p826662d707)" style="fill: none; stroke-dasharray: 9.25,4; stroke-dashoffset: 0; stroke: #450559; stroke-width: 2.5"/>
   </g>
   <g id="line2d_15">
    <path d="M 35.780627 30.829545 
L 39.280616 30.954855 
L 42.780606 30.991202 
L 46.280595 31.003251 
L 49.780585 31.012537 
L 53.280574 31.035672 
L 56.780563 31.113919 
L 60.280553 31.385416 
L 63.780542 32.312884 
L 67.280531 35.295265 
L 70.780521 43.279054 
L 74.28051 57.169176 
L 77.7805 69.643843 
L 81.280489 75.727113 
L 84.780478 77.830497 
L 88.280468 78.467929 
L 91.780457 78.655038 
L 95.280446 78.71592 
L 98.780436 78.758659 
L 102.280425 78.859456 
L 105.780415 79.195789 
L 109.280404 80.334355 
L 112.780393 83.924826 
L 116.280383 93.041715 
L 119.780372 107.374893 
L 123.280361 118.830411 
L 126.780351 123.994571 
L 130.28034 125.72121 
L 133.78033 126.238943 
L 137.280319 126.391283 
L 140.780308 126.443829 
L 144.280298 126.49004 
L 147.780287 126.612232 
L 151.280276 127.024664 
L 154.780266 128.412539 
L 158.280255 132.691731 
L 161.780244 142.931428 
L 165.280234 157.422558 
L 168.780223 167.791786 
L 172.280213 172.157292 
L 175.780202 173.577015 
L 179.280191 173.998366 
L 182.780181 174.11996 
L 186.28017 174.154764 
L 189.780159 174.164702 
L 193.280149 174.167539 
L 196.780138 174.168348 
L 200.280128 174.168579 
L 203.780117 174.168645 
L 207.280106 174.168663 
L 210.780096 174.168669 
L 214.280085 174.16867 
L 217.780074 174.168671 
L 221.280064 174.168671 
L 224.780053 174.168671 
L 228.280043 174.168671 
L 231.780032 174.168671 
L 235.280021 174.168671 
L 238.780011 174.168671 
L 242.28 174.168671 
" clip-path="url(#p826662d707)" style="fill: none; stroke: #1f968b; stroke-width: 2.5; stroke-linecap: square"/>
   </g>
   <g id="line2d_16">
    <path d="M 35.780627 30.665557 
L 39.280616 30.90756 
L 42.780606 30.978286 
L 46.280595 31.001782 
L 49.780585 31.019898 
L 53.280574 31.064969 
L 56.780563 31.216681 
L 60.280553 31.734684 
L 63.780542 33.414649 
L 67.280531 38.098378 
L 70.780521 47.639509 
L 74.28051 60.140769 
L 77.7805 70.384265 
L 81.280489 75.786693 
L 84.780478 77.821428 
L 88.280468 78.462647 
L 91.780457 78.653299 
L 95.280446 78.71542 
L 98.780436 78.758551 
L 102.280425 78.859354 
L 105.780415 79.193142 
L 109.280404 80.298773 
L 112.780393 83.584412 
L 116.280383 91.118063 
L 119.780372 102.616822 
L 123.280361 113.924429 
L 126.780351 121.350549 
L 130.28034 124.745375 
L 133.78033 125.934837 
L 137.280319 126.300146 
L 140.780308 126.41032 
L 144.280298 126.454844 
L 147.780287 126.512639 
L 151.280276 126.685441 
L 154.780266 127.262825 
L 158.280255 129.070629 
L 161.780244 133.708827 
L 165.280234 142.006067 
L 168.780223 151.814164 
L 172.280213 160.182566 
L 175.780202 165.9945 
L 179.280191 169.579711 
L 182.780181 171.650237 
L 186.28017 172.803693 
L 189.780159 173.433867 
L 193.280149 173.774571 
L 196.780138 173.957763 
L 200.280128 174.056008 
L 203.780117 174.108687 
L 207.280106 174.137044 
L 210.780096 174.152501 
L 214.280085 174.161081 
L 217.780074 174.165647 
L 221.280064 174.167661 
L 224.780053 174.168366 
L 228.280043 174.168582 
L 231.780032 174.168645 
L 235.280021 174.168664 
L 238.780011 174.168669 
L 242.28 174.16867 
" clip-path="url(#p826662d707)" style="fill: none; stroke-dasharray: 9.25,4; stroke-dashoffset: 0; stroke: #1f968b; stroke-width: 2.5"/>
   </g>
   <g id="line2d_17">
    <path d="M 35.780627 30.852848 
L 39.280616 30.961511 
L 42.780606 30.993015 
L 46.280595 31.003456 
L 49.780585 31.011504 
L 53.280574 31.031556 
L 56.780563 31.099391 
L 60.280553 31.334994 
L 63.780542 32.14255 
L 67.280531 34.768065 
L 70.780521 42.019636 
L 74.28051 55.468133 
L 77.7805 68.54408 
L 81.280489 75.298557 
L 84.780478 77.695334 
L 88.280468 78.427448 
L 91.780457 78.640643 
L 95.280446 78.702167 
L 98.780436 78.720973 
L 102.280425 78.73063 
L 105.780415 78.748415 
L 109.280404 78.806083 
L 112.780393 79.005834 
L 116.280383 79.692599 
L 119.780372 81.950321 
L 123.280361 88.391596 
L 126.780351 101.201371 
L 130.28034 114.865879 
L 133.78033 122.44988 
L 137.280319 125.234301 
L 140.780308 126.094922 
L 144.280298 126.3464 
L 147.780287 126.418906 
L 151.280276 126.440584 
L 154.780266 126.450106 
L 158.280255 126.464509 
L 161.780244 126.509527 
L 165.280234 126.665124 
L 168.780223 127.202159 
L 172.280213 128.992221 
L 175.780202 134.316252 
L 179.280191 145.966197 
L 182.780181 160.239147 
L 186.28017 169.147074 
L 189.780159 172.619537 
L 193.280149 173.716216 
L 196.780138 174.038708 
L 200.280128 174.131521 
L 203.780117 174.158066 
L 207.280106 174.165645 
L 210.780096 174.167808 
L 214.280085 174.168425 
L 217.780074 174.168601 
L 221.280064 174.168651 
L 224.780053 174.168665 
L 228.280043 174.168669 
L 231.780032 174.16867 
L 235.280021 174.168671 
L 238.780011 174.168671 
L 242.28 174.168671 
" clip-path="url(#p826662d707)" style="fill: none; stroke: #6ece58; stroke-width: 2.5; stroke-linecap: square"/>
   </g>
   <g id="line2d_18">
    <path d="M 35.780627 30.779119 
L 39.280616 30.940292 
L 42.780606 30.987224 
L 46.280595 31.002798 
L 49.780585 31.014804 
L 53.280574 31.044695 
L 56.780563 31.145541 
L 60.280553 31.492558 
L 63.780542 32.646173 
L 67.280531 36.079878 
L 70.780521 43.978629 
L 74.28051 56.028861 
L 77.7805 67.536274 
L 81.280489 74.501736 
L 84.780478 77.382436 
L 88.280468 78.329131 
L 91.780457 78.611799 
L 95.280446 78.693888 
L 98.780436 78.718663 
L 102.280425 78.730173 
L 105.780415 78.748987 
L 109.280404 78.808628 
L 112.780393 79.013928 
L 116.280383 79.709573 
L 119.780372 81.899499 
L 123.280361 87.576037 
L 126.780351 97.852966 
L 130.28034 109.821589 
L 133.78033 118.989483 
L 137.280319 123.785487 
L 140.780308 125.620788 
L 144.280298 126.205184 
L 147.780287 126.377967 
L 151.280276 126.428361 
L 154.780266 126.44486 
L 158.280255 126.45686 
L 161.780244 126.485787 
L 165.280234 126.582888 
L 168.780223 126.915513 
L 172.280213 128.006382 
L 175.780202 131.135234 
L 179.280191 137.84219 
L 182.780181 147.376117 
L 186.28017 156.667275 
L 189.780159 163.661135 
L 193.280149 168.177056 
L 196.780138 170.851701 
L 200.280128 172.3623 
L 203.780117 173.193725 
L 207.280106 173.645015 
L 210.780096 173.888155 
L 214.280085 174.01864 
L 217.780074 174.088544 
L 221.280064 174.125996 
L 224.780053 174.146134 
L 228.280043 174.157087 
L 231.780032 174.163159 
L 235.280021 174.166429 
L 238.780011 174.167909 
L 242.28 174.168439 
" clip-path="url(#p826662d707)" style="fill: none; stroke-dasharray: 9.25,4; stroke-dashoffset: 0; stroke: #6ece58; stroke-width: 2.5"/>
   </g>
   <g id="line2d_19">
    <path d="M 35.780627 30.916272 
L 39.280616 30.979602 
L 42.780606 30.99794 
L 46.280595 31.004016 
L 49.780585 31.008698 
L 53.280574 31.020368 
L 56.780563 31.059878 
L 60.280553 31.197467 
L 63.780542 31.673426 
L 67.280531 33.268995 
L 70.780521 38.098078 
L 74.28051 49.121757 
L 77.7805 63.552652 
L 81.280489 73.124188 
L 84.780478 76.981539 
L 88.280468 78.21503 
L 91.780457 78.579177 
L 95.280446 78.684136 
L 98.780436 78.714302 
L 102.280425 78.723396 
L 105.780415 78.727674 
L 109.280404 78.734794 
L 112.780393 78.757488 
L 116.280383 78.83623 
L 119.780372 79.11001 
L 123.280361 80.045234 
L 126.780351 83.050459 
L 130.28034 91.079387 
L 133.78033 104.992669 
L 137.280319 117.428564 
L 140.780308 123.472556 
L 144.280298 125.559108 
L 147.780287 126.190551 
L 151.280276 126.373849 
L 154.780266 126.426463 
L 158.280255 126.441709 
L 161.780244 126.446811 
L 165.280234 126.450898 
L 168.780223 126.461282 
L 172.280213 126.496524 
L 175.780202 126.619326 
L 179.280191 127.044727 
L 182.780181 128.47753 
L 186.28017 132.878052 
L 189.780159 143.299093 
L 193.280149 157.789135 
L 196.780138 167.976751 
L 200.280128 172.221596 
L 203.780117 173.596498 
L 207.280106 174.004023 
L 210.780096 174.121582 
L 214.280085 174.155227 
L 217.780074 174.164835 
L 221.280064 174.167576 
L 224.780053 174.168359 
L 228.280043 174.168582 
L 231.780032 174.168645 
L 235.280021 174.168664 
L 238.780011 174.168669 
L 242.28 174.16867 
" clip-path="url(#p826662d707)" style="fill: none; stroke: #efe51c; stroke-width: 2.5; stroke-linecap: square"/>
   </g>
   <g id="line2d_20">
    <path d="M 35.780627 30.887031 
L 39.280616 30.971226 
L 42.780606 30.995657 
L 46.280595 31.003756 
L 49.780585 31.009999 
L 53.280574 31.025551 
L 56.780563 31.078135 
L 60.280553 31.260437 
L 63.780542 31.881554 
L 67.280531 33.867203 
L 70.780521 39.207267 
L 74.28051 49.444706 
L 77.7805 61.943912 
L 81.280489 71.500138 
L 84.780478 76.248702 
L 88.280468 77.972404 
L 91.780457 78.506809 
L 95.280446 78.663236 
L 98.780436 78.708366 
L 102.280425 78.721868 
L 105.780415 78.727827 
L 109.280404 78.736898 
L 112.780393 78.765288 
L 116.280383 78.863385 
L 119.780372 79.201491 
L 123.280361 80.324278 
L 126.780351 83.653952 
L 130.28034 91.253031 
L 133.78033 102.78223 
L 137.280319 114.055129 
L 140.780308 121.419915 
L 144.280298 124.7718 
L 147.780287 125.942814 
L 151.280276 126.301062 
L 154.780266 126.405536 
L 158.280255 126.435784 
L 161.780244 126.44533 
L 165.280234 126.45121 
L 168.780223 126.463943 
L 172.280213 126.506222 
L 175.780202 126.6525 
L 179.280191 127.149993 
L 182.780181 128.732121 
L 186.28017 132.931013 
L 189.780159 140.833819 
L 193.280149 150.63754 
L 196.780138 159.285674 
L 200.280128 165.412206 
L 203.780117 169.233963 
L 207.280106 171.454719 
L 210.780096 172.696007 
L 214.280085 173.37538 
L 217.780074 173.743025 
L 221.280064 173.940775 
L 224.780053 174.046801 
L 228.280043 174.103557 
L 231.780032 174.133927 
L 235.280021 174.150198 
L 238.780011 174.158964 
L 242.28 174.163758 
" clip-path="url(#p826662d707)" style="fill: none; stroke-dasharray: 9.25,4; stroke-dashoffset: 0; stroke: #efe51c; stroke-width: 2.5"/>
   </g>
   <g id="patch_3">
    <path d="M 46.942755 178.9408 
L 46.942755 26.232665 
" style="fill: none; stroke: #000000; stroke-width: 2; stroke-linejoin: miter; stroke-linecap: square"/>
   </g>
   <g id="patch_4">
    <path d="M 242.28 178.9408 
L 242.28 26.232665 
" style="fill: none; stroke: #000000; stroke-width: 2; stroke-linejoin: miter; stroke-linecap: square"/>
   </g>
   <g id="patch_5">
    <path d="M 46.942755 178.9408 
L 242.28 178.9408 
" style="fill: none; stroke: #000000; stroke-width: 2; stroke-linejoin: miter; stroke-linecap: square"/>
   </g>
   <g id="patch_6">
    <path d="M 46.942755 26.232665 
L 242.28 26.232665 
" style="fill: none; stroke: #000000; stroke-width: 2; stroke-linejoin: miter; stroke-linecap: square"/>
   </g>
   <g id="text_15">
    <!-- $\beta U=20$ -->
    <g transform="translate(122.649925 20.232665) scale(0.12 -0.12)">
     <defs>
      <path id="LMMathItalic12-Regular-c" d="M 3283 1200 
C 3322 1341 3334 1482 3334 1617 
C 3334 1867 3277 2105 3149 2297 
C 3072 2412 2982 2515 2867 2586 
C 2938 2623 3008 2668 3072 2718 
C 3328 2905 3514 3163 3584 3439 
C 3603 3514 3616 3596 3616 3672 
C 3616 3859 3552 4035 3437 4173 
C 3270 4374 3008 4480 2707 4480 
C 1952 4480 1389 3607 1178 2741 
L 186 -1184 
C 186 -1229 211 -1248 237 -1248 
L 275 -1248 
C 301 -1248 320 -1235 326 -1210 
L 774 599 
C 864 206 1152 -64 1594 -64 
C 1952 -64 2330 58 2656 302 
C 2963 533 3200 860 3283 1200 
z
M 2886 1231 
C 2816 929 2669 625 2419 399 
C 2182 180 1882 57 1594 57 
C 1139 57 883 413 883 865 
C 883 966 896 1074 922 1188 
L 1312 2726 
C 1510 3526 2003 4359 2707 4359 
C 2925 4359 3104 4264 3206 4100 
C 3264 4005 3290 3892 3290 3772 
C 3290 3672 3270 3564 3245 3457 
C 3181 3217 3072 2977 2867 2794 
C 2816 2751 2752 2707 2694 2669 
C 2566 2720 2426 2745 2272 2745 
C 2054 2745 1792 2745 1754 2600 
C 1754 2583 1747 2559 1747 2559 
C 1747 2432 1997 2432 2208 2432 
C 2362 2432 2522 2457 2675 2515 
C 2765 2443 2835 2353 2880 2250 
C 2944 2115 2970 1960 2970 1799 
C 2970 1618 2938 1424 2886 1231 
z
M 2509 2591 
C 2413 2567 2310 2553 2214 2553 
C 2080 2553 1882 2553 1894 2581 
C 1907 2624 2112 2624 2266 2624 
C 2355 2624 2432 2614 2509 2591 
z
" transform="scale(0.015625)"/>
      <path id="LMRoman17-Regular-3d" d="M 4307 2125 
C 4307 2240 4198 2240 4090 2240 
L 512 2240 
C 403 2240 294 2240 294 2125 
C 294 2017 390 2017 486 2017 
L 4115 2017 
C 4211 2017 4307 2017 4307 2125 
z
M 4307 1011 
C 4307 1119 4211 1119 4115 1119 
L 486 1119 
C 390 1119 294 1119 294 1011 
C 294 896 403 896 512 896 
L 4090 896 
C 4198 896 4307 896 4307 1011 
z
" transform="scale(0.015625)"/>
     </defs>
     <use xlink:href="#LMMathItalic12-Regular-c" transform="scale(0.996264)"/>
     <use xlink:href="#LMMathItalic12-Regular-55" transform="translate(60.594016 0) scale(0.996264)"/>
     <use xlink:href="#LMRoman17-Regular-3d" transform="translate(164.926797 0) scale(0.996264)"/>
     <use xlink:href="#LMRoman17-Regular-32" transform="translate(264.316826 0) scale(0.996264)"/>
     <use xlink:href="#LMRoman17-Regular-30" transform="translate(310.007774 0) scale(0.996264)"/>
    </g>
   </g>
   <g id="legend_1">
    <g id="patch_7">
     <path d="M 53.242755 83.606513 
L 255.884167 83.606513 
Q 257.684167 83.606513 257.684167 81.806513 
L 257.684167 32.532665 
Q 257.684167 30.732665 255.884167 30.732665 
L 53.242755 30.732665 
Q 51.442755 30.732665 51.442755 32.532665 
L 51.442755 81.806513 
Q 51.442755 83.606513 53.242755 83.606513 
z
" style="fill: #ffffff; opacity: 0.8; stroke: #cccccc; stroke-linejoin: miter"/>
    </g>
    <g id="line2d_21">
     <path d="M 55.042755 37.482665 
L 64.042755 37.482665 
L 73.042755 37.482665 
" style="fill: none; stroke: #450559; stroke-width: 2.5; stroke-linecap: square"/>
    </g>
    <g id="text_16">
     <!-- $\alpha=0.25$ Exact -->
     <g transform="translate(80.242755 40.632665) scale(0.09 -0.09)">
      <defs>
       <path id="LMMathItalic12-Regular-b" d="M 3661 377 
C 3661 434 3616 434 3597 434 
C 3546 434 3539 415 3520 364 
C 3462 204 3315 64 3162 64 
C 2963 64 2963 473 2963 862 
C 3616 1641 3770 2452 3770 2452 
C 3770 2510 3718 2510 3699 2510 
C 3642 2510 3635 2491 3610 2376 
C 3526 2095 3360 1597 2963 1073 
L 2963 1616 
C 2963 2235 2611 2816 1933 2816 
C 1094 2816 256 1903 256 996 
C 256 441 602 -64 1254 -64 
C 1651 -64 2125 89 2579 472 
C 2669 115 2867 -64 3142 -64 
C 3488 -64 3661 294 3661 377 
z
M 2560 626 
C 1997 121 1491 64 1267 64 
C 813 64 685 466 685 766 
C 685 1041 826 1692 1024 2044 
C 1286 2491 1645 2689 1933 2689 
C 2554 2689 2554 1878 2554 1341 
L 2547 856 
C 2547 728 2554 696 2560 626 
z
" transform="scale(0.015625)"/>
       <path id="LMRoman17-Regular-45" d="M 3885 1615 
L 3770 1615 
C 3629 676 3546 166 2419 166 
L 1530 166 
C 1274 166 1261 197 1261 414 
L 1261 2176 
L 1862 2176 
C 2464 2176 2522 1960 2522 1430 
L 2637 1430 
L 2637 3081 
L 2522 3081 
C 2522 2557 2464 2342 1862 2342 
L 1261 2342 
L 1261 3913 
C 1261 4128 1274 4160 1530 4160 
L 2406 4160 
C 3398 4160 3514 3769 3603 2929 
L 3718 2929 
L 3565 4325 
L 326 4325 
L 326 4160 
C 768 4160 838 4160 838 3874 
L 838 451 
C 838 166 768 166 326 166 
L 326 0 
L 3654 0 
L 3885 1615 
z
" transform="scale(0.015625)"/>
       <path id="LMRoman17-Regular-78" d="M 3091 -6 
L 3091 160 
C 2771 160 2675 172 2522 370 
L 1664 1478 
L 2253 2216 
C 2464 2458 2707 2560 2989 2560 
L 2989 2726 
L 2541 2726 
C 2368 2726 2170 2726 2022 2732 
L 2022 2566 
C 2112 2553 2163 2489 2163 2400 
C 2163 2285 2099 2215 2067 2171 
L 1594 1573 
L 1030 2306 
C 973 2376 973 2388 973 2420 
C 973 2497 1037 2560 1146 2560 
L 1146 2732 
C 992 2726 717 2726 557 2726 
C 384 2726 179 2726 38 2732 
L 38 2560 
C 384 2560 461 2534 614 2343 
L 1350 1395 
C 1363 1382 1395 1344 1395 1325 
C 1395 1299 838 619 768 530 
C 480 185 179 160 6 160 
L 6 0 
L 454 0 
C 582 0 864 0 979 -6 
L 979 160 
C 941 166 838 179 838 325 
C 838 440 890 510 947 586 
L 1478 1236 
L 2035 512 
C 2086 442 2163 346 2163 301 
C 2163 211 2086 160 1984 160 
L 1984 -6 
C 2138 0 2413 0 2573 0 
C 2746 0 2950 0 3091 -6 
z
" transform="scale(0.015625)"/>
       <path id="LMRoman17-Regular-61" d="M 2874 567 
L 2874 920 
L 2758 920 
L 2758 562 
C 2758 178 2586 128 2502 128 
C 2240 128 2240 458 2240 738 
L 2240 1653 
C 2240 2072 2240 2294 1971 2543 
C 1734 2752 1459 2816 1242 2816 
C 736 2816 371 2407 371 1971 
C 371 1728 563 1728 602 1728 
C 685 1728 832 1778 832 1954 
C 832 2112 710 2181 602 2181 
C 576 2181 544 2174 525 2168 
C 659 2592 1005 2714 1229 2714 
C 1549 2714 1901 2429 1901 1885 
L 1901 1600 
C 1523 1600 1069 1549 710 1357 
C 307 1133 192 813 192 570 
C 192 77 768 -64 1107 -64 
C 1459 -64 1786 139 1926 511 
C 1939 233 2118 -18 2400 -18 
C 2534 -18 2874 70 2874 567 
z
M 1901 870 
C 1901 317 1504 38 1152 38 
C 832 38 582 275 582 570 
C 582 761 666 1100 1037 1305 
C 1344 1478 1696 1504 1901 1504 
L 1901 870 
z
" transform="scale(0.015625)"/>
       <path id="LMRoman17-Regular-63" d="M 2458 748 
C 2458 774 2451 793 2406 793 
C 2362 793 2355 787 2330 703 
C 2163 180 1798 51 1523 51 
C 1114 51 621 427 621 1369 
C 621 2338 1094 2688 1472 2688 
C 1722 2688 2093 2573 2234 2240 
C 2112 2240 1933 2240 1933 2017 
C 1933 1838 2080 1787 2163 1787 
C 2208 1787 2394 1807 2394 2024 
C 2394 2467 1958 2803 1466 2803 
C 787 2803 211 2178 211 1363 
C 211 516 813 -64 1466 -64 
C 2259 -64 2458 677 2458 748 
z
" transform="scale(0.015625)"/>
       <path id="LMRoman17-Regular-74" d="M 1965 777 
L 1965 1140 
L 1850 1140 
L 1850 783 
C 1850 344 1677 51 1408 51 
C 1222 51 966 178 966 758 
L 966 2560 
L 1862 2560 
L 1862 2725 
L 966 2725 
L 966 3904 
L 851 3904 
C 838 3245 614 2668 70 2668 
L 70 2560 
L 627 2560 
L 627 771 
C 627 650 627 -64 1370 -64 
C 1747 -64 1965 306 1965 777 
z
" transform="scale(0.015625)"/>
      </defs>
      <use xlink:href="#LMMathItalic12-Regular-b" transform="scale(0.996264)"/>
      <use xlink:href="#LMRoman17-Regular-3d" transform="translate(90.355032 0) scale(0.996264)"/>
      <use xlink:href="#LMRoman17-Regular-30" transform="translate(189.74506 0) scale(0.996264)"/>
      <use xlink:href="#LMMathItalic12-Regular-3a" transform="translate(235.436008 0) scale(0.996264)"/>
      <use xlink:href="#LMRoman17-Regular-32" transform="translate(262.533185 0) scale(0.996264)"/>
      <use xlink:href="#LMRoman17-Regular-35" transform="translate(308.224134 0) scale(0.996264)"/>
      <use xlink:href="#LMRoman17-Regular-45" transform="translate(383.991231 0) scale(0.996264)"/>
      <use xlink:href="#LMRoman17-Regular-78" transform="translate(446.57478 0) scale(0.996264)"/>
      <use xlink:href="#LMRoman17-Regular-61" transform="translate(494.865993 0) scale(0.996264)"/>
      <use xlink:href="#LMRoman17-Regular-63" transform="translate(540.556942 0) scale(0.996264)"/>
      <use xlink:href="#LMRoman17-Regular-74" transform="translate(581.041751 0) scale(0.996264)"/>
     </g>
    </g>
    <g id="line2d_22">
     <path d="M 55.042755 50.026127 
L 64.042755 50.026127 
L 73.042755 50.026127 
" style="fill: none; stroke-dasharray: 9.25,4; stroke-dashoffset: 0; stroke: #450559; stroke-width: 2.5"/>
    </g>
    <g id="text_17">
     <!-- $\alpha=0.25$ Approx -->
     <g transform="translate(80.242755 53.176127) scale(0.09 -0.09)">
      <defs>
       <path id="LMRoman17-Regular-41" d="M 4282 -13 
L 4282 153 
C 3942 153 3827 153 3744 387 
L 2323 4378 
C 2291 4461 2278 4480 2214 4480 
C 2150 4480 2138 4461 2106 4378 
L 749 566 
C 627 223 371 153 147 153 
L 147 -13 
C 262 0 518 0 640 0 
C 800 0 1056 0 1210 -13 
L 1210 153 
C 909 153 864 361 864 439 
C 864 497 877 530 890 569 
L 1229 1536 
L 2906 1536 
L 3290 442 
C 3322 365 3322 352 3322 327 
C 3322 153 3046 153 2925 153 
L 2925 0 
C 3110 0 3443 0 3642 0 
C 3808 0 4128 0 4282 -13 
z
M 2848 1702 
L 1286 1702 
L 2067 3874 
L 2848 1702 
z
" transform="scale(0.015625)"/>
       <path id="LMRoman17-Regular-70" d="M 3053 1388 
C 3053 2191 2496 2802 1837 2802 
C 1453 2802 1139 2592 960 2338 
L 960 2802 
L 198 2732 
L 198 2567 
C 576 2567 634 2528 634 2223 
L 634 -789 
C 634 -1031 608 -1063 198 -1063 
L 198 -1228 
C 352 -1216 634 -1216 800 -1216 
C 966 -1216 1254 -1216 1408 -1228 
L 1408 -1063 
C 998 -1063 973 -1037 973 -789 
L 973 402 
C 1158 134 1427 -38 1766 -38 
C 2406 -38 3053 523 3053 1388 
z
M 2643 1382 
C 2643 656 2234 64 1728 64 
C 1498 64 1248 172 1056 472 
C 973 612 973 650 973 752 
L 973 2012 
C 973 2102 973 2235 1222 2471 
C 1254 2497 1472 2688 1792 2688 
C 2259 2688 2643 2108 2643 1382 
z
" transform="scale(0.015625)"/>
       <path id="LMRoman17-Regular-72" d="M 2131 2458 
C 2131 2663 1926 2790 1709 2790 
C 1222 2790 1011 2317 947 2093 
L 941 2093 
L 941 2790 
L 198 2720 
L 198 2554 
C 576 2554 634 2515 634 2208 
L 634 428 
C 634 184 608 153 198 153 
L 198 -13 
C 352 0 646 0 813 0 
C 998 0 1325 0 1498 -13 
L 1498 153 
C 1037 153 960 153 960 440 
L 960 1497 
C 960 2112 1222 2688 1702 2688 
C 1747 2688 1792 2682 1837 2662 
C 1837 2662 1696 2617 1696 2452 
C 1696 2298 1818 2234 1914 2234 
C 1990 2234 2131 2279 2131 2458 
z
" transform="scale(0.015625)"/>
       <path id="LMRoman17-Regular-6f" d="M 2758 1356 
C 2758 2176 2163 2816 1466 2816 
C 768 2816 173 2176 173 1356 
C 173 551 768 -64 1466 -64 
C 2163 -64 2758 551 2758 1356 
z
M 2349 1408 
C 2349 1158 2336 775 2163 467 
C 1984 173 1709 51 1466 51 
C 1165 51 909 230 762 480 
C 602 767 582 1126 582 1408 
C 582 1677 595 2010 762 2298 
C 890 2509 1139 2714 1466 2714 
C 1754 2714 1997 2554 2150 2330 
C 2349 2029 2349 1607 2349 1408 
z
" transform="scale(0.015625)"/>
      </defs>
      <use xlink:href="#LMMathItalic12-Regular-b" transform="scale(0.996264)"/>
      <use xlink:href="#LMRoman17-Regular-3d" transform="translate(90.355032 0) scale(0.996264)"/>
      <use xlink:href="#LMRoman17-Regular-30" transform="translate(189.74506 0) scale(0.996264)"/>
      <use xlink:href="#LMMathItalic12-Regular-3a" transform="translate(235.436008 0) scale(0.996264)"/>
      <use xlink:href="#LMRoman17-Regular-32" transform="translate(262.533185 0) scale(0.996264)"/>
      <use xlink:href="#LMRoman17-Regular-35" transform="translate(308.224134 0) scale(0.996264)"/>
      <use xlink:href="#LMRoman17-Regular-41" transform="translate(383.991231 0) scale(0.996264)"/>
      <use xlink:href="#LMRoman17-Regular-70" transform="translate(453.060909 0) scale(0.996264)"/>
      <use xlink:href="#LMRoman17-Regular-70" transform="translate(503.957997 0) scale(0.996264)"/>
      <use xlink:href="#LMRoman17-Regular-72" transform="translate(554.855084 0) scale(0.996264)"/>
      <use xlink:href="#LMRoman17-Regular-6f" transform="translate(590.136612 0) scale(0.996264)"/>
      <use xlink:href="#LMRoman17-Regular-78" transform="translate(633.225107 0) scale(0.996264)"/>
     </g>
    </g>
    <g id="line2d_23">
     <path d="M 55.042755 62.569589 
L 64.042755 62.569589 
L 73.042755 62.569589 
" style="fill: none; stroke: #1f968b; stroke-width: 2.5; stroke-linecap: square"/>
    </g>
    <g id="text_18">
     <!-- $\alpha=0.75$ Exact -->
     <g transform="translate(80.242755 65.719589) scale(0.09 -0.09)">
      <defs>
       <path id="LMRoman17-Regular-37" d="M 2886 3941 
L 2886 4081 
L 1382 4081 
C 634 4081 621 4165 595 4288 
L 480 4288 
L 294 3094 
L 410 3094 
C 429 3215 474 3540 550 3661 
C 589 3712 1062 3712 1171 3712 
L 2579 3712 
L 1869 2661 
C 1395 1954 1069 999 1069 165 
C 1069 89 1069 -128 1299 -128 
C 1530 -128 1530 89 1530 171 
L 1530 465 
C 1530 1508 1709 2196 2003 2636 
L 2886 3941 
z
" transform="scale(0.015625)"/>
      </defs>
      <use xlink:href="#LMMathItalic12-Regular-b" transform="scale(0.996264)"/>
      <use xlink:href="#LMRoman17-Regular-3d" transform="translate(90.355032 0) scale(0.996264)"/>
      <use xlink:href="#LMRoman17-Regular-30" transform="translate(189.74506 0) scale(0.996264)"/>
      <use xlink:href="#LMMathItalic12-Regular-3a" transform="translate(235.436008 0) scale(0.996264)"/>
      <use xlink:href="#LMRoman17-Regular-37" transform="translate(262.533185 0) scale(0.996264)"/>
      <use xlink:href="#LMRoman17-Regular-35" transform="translate(308.224134 0) scale(0.996264)"/>
      <use xlink:href="#LMRoman17-Regular-45" transform="translate(383.991231 0) scale(0.996264)"/>
      <use xlink:href="#LMRoman17-Regular-78" transform="translate(446.57478 0) scale(0.996264)"/>
      <use xlink:href="#LMRoman17-Regular-61" transform="translate(494.865993 0) scale(0.996264)"/>
      <use xlink:href="#LMRoman17-Regular-63" transform="translate(540.556942 0) scale(0.996264)"/>
      <use xlink:href="#LMRoman17-Regular-74" transform="translate(581.041751 0) scale(0.996264)"/>
     </g>
    </g>
    <g id="line2d_24">
     <path d="M 55.042755 75.113051 
L 64.042755 75.113051 
L 73.042755 75.113051 
" style="fill: none; stroke-dasharray: 9.25,4; stroke-dashoffset: 0; stroke: #1f968b; stroke-width: 2.5"/>
    </g>
    <g id="text_19">
     <!-- $\alpha=0.75$ Approx -->
     <g transform="translate(80.242755 78.263051) scale(0.09 -0.09)">
      <use xlink:href="#LMMathItalic12-Regular-b" transform="scale(0.996264)"/>
      <use xlink:href="#LMRoman17-Regular-3d" transform="translate(90.355032 0) scale(0.996264)"/>
      <use xlink:href="#LMRoman17-Regular-30" transform="translate(189.74506 0) scale(0.996264)"/>
      <use xlink:href="#LMMathItalic12-Regular-3a" transform="translate(235.436008 0) scale(0.996264)"/>
      <use xlink:href="#LMRoman17-Regular-37" transform="translate(262.533185 0) scale(0.996264)"/>
      <use xlink:href="#LMRoman17-Regular-35" transform="translate(308.224134 0) scale(0.996264)"/>
      <use xlink:href="#LMRoman17-Regular-41" transform="translate(383.991231 0) scale(0.996264)"/>
      <use xlink:href="#LMRoman17-Regular-70" transform="translate(453.060909 0) scale(0.996264)"/>
      <use xlink:href="#LMRoman17-Regular-70" transform="translate(503.957997 0) scale(0.996264)"/>
      <use xlink:href="#LMRoman17-Regular-72" transform="translate(554.855084 0) scale(0.996264)"/>
      <use xlink:href="#LMRoman17-Regular-6f" transform="translate(590.136612 0) scale(0.996264)"/>
      <use xlink:href="#LMRoman17-Regular-78" transform="translate(633.225107 0) scale(0.996264)"/>
     </g>
    </g>
    <g id="line2d_25">
     <path d="M 165.867322 37.482665 
L 174.867322 37.482665 
L 183.867322 37.482665 
" style="fill: none; stroke: #6ece58; stroke-width: 2.5; stroke-linecap: square"/>
    </g>
    <g id="text_20">
     <!-- $\alpha=0.9$ Exact -->
     <g transform="translate(191.067322 40.632665) scale(0.09 -0.09)">
      <defs>
       <path id="LMRoman17-Regular-39" d="M 2688 2073 
C 2688 3817 1971 4179 1485 4179 
C 851 4179 243 3628 243 2778 
C 243 1991 762 1408 1414 1408 
C 1952 1408 2189 1903 2253 2112 
L 2253 1864 
C 2253 464 1670 31 1190 31 
C 1043 31 685 31 538 294 
C 704 268 826 357 826 518 
C 826 692 685 749 595 749 
C 538 749 365 723 365 506 
C 365 71 742 -128 1203 -128 
C 1939 -128 2688 674 2688 2073 
z
M 2240 2632 
C 2240 2182 2035 1510 1427 1510 
C 1254 1510 1011 1542 813 1922 
C 678 2169 678 2461 678 2771 
C 678 3146 678 3405 858 3684 
C 947 3817 1114 4032 1485 4032 
C 2240 4032 2240 2885 2240 2632 
z
" transform="scale(0.015625)"/>
      </defs>
      <use xlink:href="#LMMathItalic12-Regular-b" transform="scale(0.996264)"/>
      <use xlink:href="#LMRoman17-Regular-3d" transform="translate(90.355032 0) scale(0.996264)"/>
      <use xlink:href="#LMRoman17-Regular-30" transform="translate(189.74506 0) scale(0.996264)"/>
      <use xlink:href="#LMMathItalic12-Regular-3a" transform="translate(235.436008 0) scale(0.996264)"/>
      <use xlink:href="#LMRoman17-Regular-39" transform="translate(262.533185 0) scale(0.996264)"/>
      <use xlink:href="#LMRoman17-Regular-45" transform="translate(338.300283 0) scale(0.996264)"/>
      <use xlink:href="#LMRoman17-Regular-78" transform="translate(400.883832 0) scale(0.996264)"/>
      <use xlink:href="#LMRoman17-Regular-61" transform="translate(449.175045 0) scale(0.996264)"/>
      <use xlink:href="#LMRoman17-Regular-63" transform="translate(494.865993 0) scale(0.996264)"/>
      <use xlink:href="#LMRoman17-Regular-74" transform="translate(535.350802 0) scale(0.996264)"/>
     </g>
    </g>
    <g id="line2d_26">
     <path d="M 165.867322 50.026127 
L 174.867322 50.026127 
L 183.867322 50.026127 
" style="fill: none; stroke-dasharray: 9.25,4; stroke-dashoffset: 0; stroke: #6ece58; stroke-width: 2.5"/>
    </g>
    <g id="text_21">
     <!-- $\alpha=0.9$ Approx -->
     <g transform="translate(191.067322 53.176127) scale(0.09 -0.09)">
      <use xlink:href="#LMMathItalic12-Regular-b" transform="scale(0.996264)"/>
      <use xlink:href="#LMRoman17-Regular-3d" transform="translate(90.355032 0) scale(0.996264)"/>
      <use xlink:href="#LMRoman17-Regular-30" transform="translate(189.74506 0) scale(0.996264)"/>
      <use xlink:href="#LMMathItalic12-Regular-3a" transform="translate(235.436008 0) scale(0.996264)"/>
      <use xlink:href="#LMRoman17-Regular-39" transform="translate(262.533185 0) scale(0.996264)"/>
      <use xlink:href="#LMRoman17-Regular-41" transform="translate(338.300283 0) scale(0.996264)"/>
      <use xlink:href="#LMRoman17-Regular-70" transform="translate(407.369961 0) scale(0.996264)"/>
      <use xlink:href="#LMRoman17-Regular-70" transform="translate(458.267048 0) scale(0.996264)"/>
      <use xlink:href="#LMRoman17-Regular-72" transform="translate(509.164136 0) scale(0.996264)"/>
      <use xlink:href="#LMRoman17-Regular-6f" transform="translate(544.445664 0) scale(0.996264)"/>
      <use xlink:href="#LMRoman17-Regular-78" transform="translate(587.534158 0) scale(0.996264)"/>
     </g>
    </g>
    <g id="line2d_27">
     <path d="M 165.867322 62.569589 
L 174.867322 62.569589 
L 183.867322 62.569589 
" style="fill: none; stroke: #efe51c; stroke-width: 2.5; stroke-linecap: square"/>
    </g>
    <g id="text_22">
     <!-- $\alpha=1.0$ Exact -->
     <g transform="translate(191.067322 65.719589) scale(0.09 -0.09)">
      <use xlink:href="#LMMathItalic12-Regular-b" transform="scale(0.996264)"/>
      <use xlink:href="#LMRoman17-Regular-3d" transform="translate(90.355032 0) scale(0.996264)"/>
      <use xlink:href="#LMRoman17-Regular-31" transform="translate(189.74506 0) scale(0.996264)"/>
      <use xlink:href="#LMMathItalic12-Regular-3a" transform="translate(235.436008 0) scale(0.996264)"/>
      <use xlink:href="#LMRoman17-Regular-30" transform="translate(262.533185 0) scale(0.996264)"/>
      <use xlink:href="#LMRoman17-Regular-45" transform="translate(338.300283 0) scale(0.996264)"/>
      <use xlink:href="#LMRoman17-Regular-78" transform="translate(400.883832 0) scale(0.996264)"/>
      <use xlink:href="#LMRoman17-Regular-61" transform="translate(449.175045 0) scale(0.996264)"/>
      <use xlink:href="#LMRoman17-Regular-63" transform="translate(494.865993 0) scale(0.996264)"/>
      <use xlink:href="#LMRoman17-Regular-74" transform="translate(535.350802 0) scale(0.996264)"/>
     </g>
    </g>
    <g id="line2d_28">
     <path d="M 165.867322 75.113051 
L 174.867322 75.113051 
L 183.867322 75.113051 
" style="fill: none; stroke-dasharray: 9.25,4; stroke-dashoffset: 0; stroke: #efe51c; stroke-width: 2.5"/>
    </g>
    <g id="text_23">
     <!-- $\alpha=1.0$ Approx -->
     <g transform="translate(191.067322 78.263051) scale(0.09 -0.09)">
      <use xlink:href="#LMMathItalic12-Regular-b" transform="scale(0.996264)"/>
      <use xlink:href="#LMRoman17-Regular-3d" transform="translate(90.355032 0) scale(0.996264)"/>
      <use xlink:href="#LMRoman17-Regular-31" transform="translate(189.74506 0) scale(0.996264)"/>
      <use xlink:href="#LMMathItalic12-Regular-3a" transform="translate(235.436008 0) scale(0.996264)"/>
      <use xlink:href="#LMRoman17-Regular-30" transform="translate(262.533185 0) scale(0.996264)"/>
      <use xlink:href="#LMRoman17-Regular-41" transform="translate(338.300283 0) scale(0.996264)"/>
      <use xlink:href="#LMRoman17-Regular-70" transform="translate(407.369961 0) scale(0.996264)"/>
      <use xlink:href="#LMRoman17-Regular-70" transform="translate(458.267048 0) scale(0.996264)"/>
      <use xlink:href="#LMRoman17-Regular-72" transform="translate(509.164136 0) scale(0.996264)"/>
      <use xlink:href="#LMRoman17-Regular-6f" transform="translate(544.445664 0) scale(0.996264)"/>
      <use xlink:href="#LMRoman17-Regular-78" transform="translate(587.534158 0) scale(0.996264)"/>
     </g>
    </g>
   </g>
  </g>
 </g>
 <defs>
  <clipPath id="p826662d707">
   <rect x="46.942755" y="26.232665" width="195.337245" height="152.708135"/>
  </clipPath>
 </defs>
</svg>
