<?xml version="1.0" encoding="utf-8" standalone="no"?>
<!DOCTYPE svg PUBLIC "-//W3C//DTD SVG 1.1//EN"
  "http://www.w3.org/Graphics/SVG/1.1/DTD/svg11.dtd">
<svg xmlns:xlink="http://www.w3.org/1999/xlink" width="254.16pt" height="223.2pt" viewBox="0 0 254.16 223.2" xmlns="http://www.w3.org/2000/svg" version="1.1">
 <metadata>
  <rdf:RDF xmlns:dc="http://purl.org/dc/elements/1.1/" xmlns:cc="http://creativecommons.org/ns#" xmlns:rdf="http://www.w3.org/1999/02/22-rdf-syntax-ns#">
   <cc:Work>
    <dc:type rdf:resource="http://purl.org/dc/dcmitype/StillImage"/>
    <dc:date>2026-05-03T17:24:50.176444</dc:date>
    <dc:format>image/svg+xml</dc:format>
    <dc:creator>
     <cc:Agent>
      <dc:title>Matplotlib v3.10.3, https://matplotlib.org/</dc:title>
     </cc:Agent>
    </dc:creator>
   </cc:Work>
  </rdf:RDF>
 </metadata>
 <defs>
  <style type="text/css">*{stroke-linejoin: round; stroke-linecap: butt}</style>
 </defs>
 <g id="figure_1">
  <g id="patch_1">
   <path d="M 0 223.2 
L 254.16 223.2 
L 254.16 0 
L 0 0 
z
" style="fill: #ffffff"/>
  </g>
  <g id="axes_1">
   <g id="patch_2">
    <path d="M 28.883231 188.991979 
L 251.15976 188.991979 
L 251.15976 17.966616 
L 28.883231 17.966616 
z
" style="fill: #ffffff"/>
   </g>
   <g id="matplotlib.axis_1">
    <g id="xtick_1">
     <g id="line2d_1">
      <defs>
       <path id="m4269aa07cd" d="M 0 0 
L 0 6 
" style="stroke: #000000"/>
      </defs>
      <g>
       <use xlink:href="#m4269aa07cd" x="41.093463" y="188.991979" style="stroke: #000000"/>
      </g>
     </g>
     <g id="text_1">
      <!-- $\mathdefault{10^{-2}}$ -->
      <g transform="translate(31.781193 204.668813) scale(0.09 -0.09)">
       <defs>
        <path id="LMRoman17-Regular-31" d="M 2458 0 
L 2458 160 
L 2266 160 
C 1715 160 1702 230 1702 458 
L 1702 4058 
C 1702 4192 1696 4192 1606 4192 
C 1357 3916 979 3827 621 3827 
C 602 3827 570 3827 563 3808 
C 557 3795 557 3782 557 3648 
C 755 3648 1088 3686 1344 3839 
L 1344 461 
C 1344 236 1331 160 781 160 
L 589 160 
L 589 0 
L 1523 0 
L 2458 0 
z
" transform="scale(0.015625)"/>
        <path id="LMRoman17-Regular-30" d="M 2688 2025 
C 2688 2416 2682 3080 2413 3591 
C 2176 4039 1798 4198 1466 4198 
C 1158 4198 768 4058 525 3597 
C 269 3118 243 2524 243 2025 
C 243 1661 250 1106 448 619 
C 723 -39 1216 -128 1466 -128 
C 1760 -128 2208 -7 2470 600 
C 2662 1042 2688 1559 2688 2025 
z
M 2278 2096 
C 2278 1680 2278 1169 2202 792 
C 2067 95 1690 -26 1466 -26 
C 1056 -26 813 325 723 812 
C 653 1188 653 1738 653 2096 
C 653 2588 653 2997 736 3387 
C 858 3929 1216 4096 1466 4096 
C 1728 4096 2067 3923 2189 3400 
C 2272 3036 2278 2607 2278 2096 
z
" transform="scale(0.015625)"/>
        <path id="LMMathSymbols10-Regular-0" d="M 4442 1600 
C 4442 1728 4320 1728 4230 1728 
L 742 1728 
C 653 1728 531 1728 531 1600 
C 531 1472 653 1472 742 1472 
L 4230 1472 
C 4320 1472 4442 1472 4442 1600 
z
" transform="scale(0.015625)"/>
        <path id="LMRoman17-Regular-32" d="M 2669 989 
L 2554 989 
C 2490 536 2438 459 2413 420 
C 2381 369 1920 369 1830 369 
L 602 369 
L 1824 1597 
C 2214 1967 2669 2402 2669 3035 
C 2669 3790 2067 4224 1395 4224 
C 691 4224 262 3604 262 3030 
C 262 2780 448 2748 525 2748 
C 589 2748 781 2787 781 3010 
C 781 3207 614 3264 525 3264 
C 486 3264 448 3258 422 3245 
C 544 3790 915 4058 1306 4058 
C 1862 4058 2227 3617 2227 3035 
C 2227 2479 1901 2000 1536 1584 
L 262 146 
L 262 0 
L 2515 0 
L 2669 989 
z
" transform="scale(0.015625)"/>
       </defs>
       <use xlink:href="#LMRoman17-Regular-31" transform="scale(0.996264)"/>
       <use xlink:href="#LMRoman17-Regular-30" transform="translate(45.690948 0) scale(0.996264)"/>
       <use xlink:href="#LMMathSymbols10-Regular-0" transform="translate(91.381897 36.153639) scale(0.697382)"/>
       <use xlink:href="#LMRoman17-Regular-32" transform="translate(145.62289 36.153639) scale(0.697382)"/>
      </g>
     </g>
    </g>
    <g id="xtick_2">
     <g id="line2d_2">
      <g>
       <use xlink:href="#m4269aa07cd" x="89.934391" y="188.991979" style="stroke: #000000"/>
      </g>
     </g>
     <g id="text_2">
      <!-- $\mathdefault{10^{-1}}$ -->
      <g transform="translate(80.622122 204.668813) scale(0.09 -0.09)">
       <use xlink:href="#LMRoman17-Regular-31" transform="scale(0.996264)"/>
       <use xlink:href="#LMRoman17-Regular-30" transform="translate(45.690948 0) scale(0.996264)"/>
       <use xlink:href="#LMMathSymbols10-Regular-0" transform="translate(91.381897 36.153639) scale(0.697382)"/>
       <use xlink:href="#LMRoman17-Regular-31" transform="translate(145.62289 36.153639) scale(0.697382)"/>
      </g>
     </g>
    </g>
    <g id="xtick_3">
     <g id="line2d_3">
      <g>
       <use xlink:href="#m4269aa07cd" x="138.775319" y="188.991979" style="stroke: #000000"/>
      </g>
     </g>
     <g id="text_3">
      <!-- $\mathdefault{10^{0}}$ -->
      <g transform="translate(132.341119 204.668813) scale(0.09 -0.09)">
       <use xlink:href="#LMRoman17-Regular-31" transform="scale(0.996264)"/>
       <use xlink:href="#LMRoman17-Regular-30" transform="translate(45.690948 0) scale(0.996264)"/>
       <use xlink:href="#LMRoman17-Regular-30" transform="translate(91.381897 36.153639) scale(0.697382)"/>
      </g>
     </g>
    </g>
    <g id="xtick_4">
     <g id="line2d_4">
      <g>
       <use xlink:href="#m4269aa07cd" x="187.616248" y="188.991979" style="stroke: #000000"/>
      </g>
     </g>
     <g id="text_4">
      <!-- $\mathdefault{10^{1}}$ -->
      <g transform="translate(181.182048 204.668813) scale(0.09 -0.09)">
       <use xlink:href="#LMRoman17-Regular-31" transform="scale(0.996264)"/>
       <use xlink:href="#LMRoman17-Regular-30" transform="translate(45.690948 0) scale(0.996264)"/>
       <use xlink:href="#LMRoman17-Regular-31" transform="translate(91.381897 36.153639) scale(0.697382)"/>
      </g>
     </g>
    </g>
    <g id="xtick_5">
     <g id="line2d_5">
      <g>
       <use xlink:href="#m4269aa07cd" x="236.457176" y="188.991979" style="stroke: #000000"/>
      </g>
     </g>
     <g id="text_5">
      <!-- $\mathdefault{10^{2}}$ -->
      <g transform="translate(230.022976 204.668813) scale(0.09 -0.09)">
       <use xlink:href="#LMRoman17-Regular-31" transform="scale(0.996264)"/>
       <use xlink:href="#LMRoman17-Regular-30" transform="translate(45.690948 0) scale(0.996264)"/>
       <use xlink:href="#LMRoman17-Regular-32" transform="translate(91.381897 36.153639) scale(0.697382)"/>
      </g>
     </g>
    </g>
    <g id="xtick_6">
     <g id="line2d_6">
      <defs>
       <path id="mbf3555da82" d="M 0 0 
L 0 3 
" style="stroke: #000000"/>
      </defs>
      <g>
       <use xlink:href="#mbf3555da82" x="30.258164" y="188.991979" style="stroke: #000000"/>
      </g>
     </g>
    </g>
    <g id="xtick_7">
     <g id="line2d_7">
      <g>
       <use xlink:href="#mbf3555da82" x="33.527908" y="188.991979" style="stroke: #000000"/>
      </g>
     </g>
    </g>
    <g id="xtick_8">
     <g id="line2d_8">
      <g>
       <use xlink:href="#mbf3555da82" x="36.360288" y="188.991979" style="stroke: #000000"/>
      </g>
     </g>
    </g>
    <g id="xtick_9">
     <g id="line2d_9">
      <g>
       <use xlink:href="#mbf3555da82" x="38.858625" y="188.991979" style="stroke: #000000"/>
      </g>
     </g>
    </g>
    <g id="xtick_10">
     <g id="line2d_10">
      <g>
       <use xlink:href="#mbf3555da82" x="55.796048" y="188.991979" style="stroke: #000000"/>
      </g>
     </g>
    </g>
    <g id="xtick_11">
     <g id="line2d_11">
      <g>
       <use xlink:href="#mbf3555da82" x="64.396508" y="188.991979" style="stroke: #000000"/>
      </g>
     </g>
    </g>
    <g id="xtick_12">
     <g id="line2d_12">
      <g>
       <use xlink:href="#mbf3555da82" x="70.498632" y="188.991979" style="stroke: #000000"/>
      </g>
     </g>
    </g>
    <g id="xtick_13">
     <g id="line2d_13">
      <g>
       <use xlink:href="#mbf3555da82" x="75.231807" y="188.991979" style="stroke: #000000"/>
      </g>
     </g>
    </g>
    <g id="xtick_14">
     <g id="line2d_14">
      <g>
       <use xlink:href="#mbf3555da82" x="79.099093" y="188.991979" style="stroke: #000000"/>
      </g>
     </g>
    </g>
    <g id="xtick_15">
     <g id="line2d_15">
      <g>
       <use xlink:href="#mbf3555da82" x="82.368836" y="188.991979" style="stroke: #000000"/>
      </g>
     </g>
    </g>
    <g id="xtick_16">
     <g id="line2d_16">
      <g>
       <use xlink:href="#mbf3555da82" x="85.201216" y="188.991979" style="stroke: #000000"/>
      </g>
     </g>
    </g>
    <g id="xtick_17">
     <g id="line2d_17">
      <g>
       <use xlink:href="#mbf3555da82" x="87.699553" y="188.991979" style="stroke: #000000"/>
      </g>
     </g>
    </g>
    <g id="xtick_18">
     <g id="line2d_18">
      <g>
       <use xlink:href="#mbf3555da82" x="104.636976" y="188.991979" style="stroke: #000000"/>
      </g>
     </g>
    </g>
    <g id="xtick_19">
     <g id="line2d_19">
      <g>
       <use xlink:href="#mbf3555da82" x="113.237436" y="188.991979" style="stroke: #000000"/>
      </g>
     </g>
    </g>
    <g id="xtick_20">
     <g id="line2d_20">
      <g>
       <use xlink:href="#mbf3555da82" x="119.33956" y="188.991979" style="stroke: #000000"/>
      </g>
     </g>
    </g>
    <g id="xtick_21">
     <g id="line2d_21">
      <g>
       <use xlink:href="#mbf3555da82" x="124.072735" y="188.991979" style="stroke: #000000"/>
      </g>
     </g>
    </g>
    <g id="xtick_22">
     <g id="line2d_22">
      <g>
       <use xlink:href="#mbf3555da82" x="127.940021" y="188.991979" style="stroke: #000000"/>
      </g>
     </g>
    </g>
    <g id="xtick_23">
     <g id="line2d_23">
      <g>
       <use xlink:href="#mbf3555da82" x="131.209764" y="188.991979" style="stroke: #000000"/>
      </g>
     </g>
    </g>
    <g id="xtick_24">
     <g id="line2d_24">
      <g>
       <use xlink:href="#mbf3555da82" x="134.042144" y="188.991979" style="stroke: #000000"/>
      </g>
     </g>
    </g>
    <g id="xtick_25">
     <g id="line2d_25">
      <g>
       <use xlink:href="#mbf3555da82" x="136.540481" y="188.991979" style="stroke: #000000"/>
      </g>
     </g>
    </g>
    <g id="xtick_26">
     <g id="line2d_26">
      <g>
       <use xlink:href="#mbf3555da82" x="153.477904" y="188.991979" style="stroke: #000000"/>
      </g>
     </g>
    </g>
    <g id="xtick_27">
     <g id="line2d_27">
      <g>
       <use xlink:href="#mbf3555da82" x="162.078364" y="188.991979" style="stroke: #000000"/>
      </g>
     </g>
    </g>
    <g id="xtick_28">
     <g id="line2d_28">
      <g>
       <use xlink:href="#mbf3555da82" x="168.180488" y="188.991979" style="stroke: #000000"/>
      </g>
     </g>
    </g>
    <g id="xtick_29">
     <g id="line2d_29">
      <g>
       <use xlink:href="#mbf3555da82" x="172.913663" y="188.991979" style="stroke: #000000"/>
      </g>
     </g>
    </g>
    <g id="xtick_30">
     <g id="line2d_30">
      <g>
       <use xlink:href="#mbf3555da82" x="176.780949" y="188.991979" style="stroke: #000000"/>
      </g>
     </g>
    </g>
    <g id="xtick_31">
     <g id="line2d_31">
      <g>
       <use xlink:href="#mbf3555da82" x="180.050692" y="188.991979" style="stroke: #000000"/>
      </g>
     </g>
    </g>
    <g id="xtick_32">
     <g id="line2d_32">
      <g>
       <use xlink:href="#mbf3555da82" x="182.883073" y="188.991979" style="stroke: #000000"/>
      </g>
     </g>
    </g>
    <g id="xtick_33">
     <g id="line2d_33">
      <g>
       <use xlink:href="#mbf3555da82" x="185.381409" y="188.991979" style="stroke: #000000"/>
      </g>
     </g>
    </g>
    <g id="xtick_34">
     <g id="line2d_34">
      <g>
       <use xlink:href="#mbf3555da82" x="202.318832" y="188.991979" style="stroke: #000000"/>
      </g>
     </g>
    </g>
    <g id="xtick_35">
     <g id="line2d_35">
      <g>
       <use xlink:href="#mbf3555da82" x="210.919292" y="188.991979" style="stroke: #000000"/>
      </g>
     </g>
    </g>
    <g id="xtick_36">
     <g id="line2d_36">
      <g>
       <use xlink:href="#mbf3555da82" x="217.021416" y="188.991979" style="stroke: #000000"/>
      </g>
     </g>
    </g>
    <g id="xtick_37">
     <g id="line2d_37">
      <g>
       <use xlink:href="#mbf3555da82" x="221.754591" y="188.991979" style="stroke: #000000"/>
      </g>
     </g>
    </g>
    <g id="xtick_38">
     <g id="line2d_38">
      <g>
       <use xlink:href="#mbf3555da82" x="225.621877" y="188.991979" style="stroke: #000000"/>
      </g>
     </g>
    </g>
    <g id="xtick_39">
     <g id="line2d_39">
      <g>
       <use xlink:href="#mbf3555da82" x="228.89162" y="188.991979" style="stroke: #000000"/>
      </g>
     </g>
    </g>
    <g id="xtick_40">
     <g id="line2d_40">
      <g>
       <use xlink:href="#mbf3555da82" x="231.724001" y="188.991979" style="stroke: #000000"/>
      </g>
     </g>
    </g>
    <g id="xtick_41">
     <g id="line2d_41">
      <g>
       <use xlink:href="#mbf3555da82" x="234.222337" y="188.991979" style="stroke: #000000"/>
      </g>
     </g>
    </g>
    <g id="xtick_42">
     <g id="line2d_42">
      <g>
       <use xlink:href="#mbf3555da82" x="251.15976" y="188.991979" style="stroke: #000000"/>
      </g>
     </g>
    </g>
    <g id="text_6">
     <!-- $\beta U$ -->
     <g transform="translate(133.044972 218.068881) scale(0.11 -0.11)">
      <defs>
       <path id="LMMathItalic12-Regular-c" d="M 3283 1200 
C 3322 1341 3334 1482 3334 1617 
C 3334 1867 3277 2105 3149 2297 
C 3072 2412 2982 2515 2867 2586 
C 2938 2623 3008 2668 3072 2718 
C 3328 2905 3514 3163 3584 3439 
C 3603 3514 3616 3596 3616 3672 
C 3616 3859 3552 4035 3437 4173 
C 3270 4374 3008 4480 2707 4480 
C 1952 4480 1389 3607 1178 2741 
L 186 -1184 
C 186 -1229 211 -1248 237 -1248 
L 275 -1248 
C 301 -1248 320 -1235 326 -1210 
L 774 599 
C 864 206 1152 -64 1594 -64 
C 1952 -64 2330 58 2656 302 
C 2963 533 3200 860 3283 1200 
z
M 2886 1231 
C 2816 929 2669 625 2419 399 
C 2182 180 1882 57 1594 57 
C 1139 57 883 413 883 865 
C 883 966 896 1074 922 1188 
L 1312 2726 
C 1510 3526 2003 4359 2707 4359 
C 2925 4359 3104 4264 3206 4100 
C 3264 4005 3290 3892 3290 3772 
C 3290 3672 3270 3564 3245 3457 
C 3181 3217 3072 2977 2867 2794 
C 2816 2751 2752 2707 2694 2669 
C 2566 2720 2426 2745 2272 2745 
C 2054 2745 1792 2745 1754 2600 
C 1754 2583 1747 2559 1747 2559 
C 1747 2432 1997 2432 2208 2432 
C 2362 2432 2522 2457 2675 2515 
C 2765 2443 2835 2353 2880 2250 
C 2944 2115 2970 1960 2970 1799 
C 2970 1618 2938 1424 2886 1231 
z
M 2509 2591 
C 2413 2567 2310 2553 2214 2553 
C 2080 2553 1882 2553 1894 2581 
C 1907 2624 2112 2624 2266 2624 
C 2355 2624 2432 2614 2509 2591 
z
" transform="scale(0.015625)"/>
       <path id="LMMathItalic12-Regular-55" d="M 4730 4279 
C 4730 4352 4672 4352 4646 4352 
C 4557 4352 4442 4352 4352 4352 
L 4051 4352 
C 3654 4352 3443 4352 3443 4352 
C 3405 4352 3328 4352 3328 4226 
C 3328 4160 3379 4160 3424 4160 
C 3808 4160 3834 4013 3834 3899 
C 3834 3842 3834 3822 3808 3733 
L 3238 1472 
C 3014 580 2272 57 1670 57 
C 1210 57 896 362 896 889 
C 896 914 896 1105 966 1385 
L 1594 3881 
C 1651 4096 1664 4160 2118 4160 
C 2234 4160 2298 4160 2298 4279 
C 2298 4352 2240 4352 2202 4352 
C 2086 4352 1952 4352 1830 4352 
L 1075 4352 
C 954 4352 819 4352 698 4352 
C 653 4352 576 4352 576 4226 
C 576 4160 621 4160 742 4160 
C 1126 4160 1126 4112 1126 4045 
C 1126 4007 1082 3823 1050 3714 
L 493 1488 
C 474 1418 435 1246 435 1074 
C 435 374 941 -128 1638 -128 
C 2285 -128 3002 383 3328 1195 
C 3373 1303 3430 1527 3469 1699 
L 3712 2658 
L 3955 3617 
C 4038 3949 4090 4160 4653 4160 
C 4704 4166 4730 4219 4730 4279 
z
" transform="scale(0.015625)"/>
      </defs>
      <use xlink:href="#LMMathItalic12-Regular-c" transform="scale(0.996264)"/>
      <use xlink:href="#LMMathItalic12-Regular-55" transform="translate(60.594016 0) scale(0.996264)"/>
     </g>
    </g>
   </g>
   <g id="matplotlib.axis_2">
    <g id="ytick_1">
     <g id="line2d_43">
      <defs>
       <path id="meb91400972" d="M 0 0 
L -6 0 
" style="stroke: #000000"/>
      </defs>
      <g>
       <use xlink:href="#meb91400972" x="28.883231" y="174.739865" style="stroke: #000000"/>
      </g>
     </g>
     <g id="text_7">
      <!-- $\mathdefault{0.20}$ -->
      <g transform="translate(3.00024 177.828282) scale(0.09 -0.09)">
       <defs>
        <path id="LMMathItalic12-Regular-3a" d="M 1178 307 
C 1178 492 1024 619 870 619 
C 685 619 557 466 557 313 
C 557 128 710 0 864 0 
C 1050 0 1178 153 1178 307 
z
" transform="scale(0.015625)"/>
       </defs>
       <use xlink:href="#LMRoman17-Regular-30" transform="scale(0.996264)"/>
       <use xlink:href="#LMMathItalic12-Regular-3a" transform="translate(45.690948 0) scale(0.996264)"/>
       <use xlink:href="#LMRoman17-Regular-32" transform="translate(72.788125 0) scale(0.996264)"/>
       <use xlink:href="#LMRoman17-Regular-30" transform="translate(118.479074 0) scale(0.996264)"/>
      </g>
     </g>
    </g>
    <g id="ytick_2">
     <g id="line2d_44">
      <g>
       <use xlink:href="#meb91400972" x="28.883231" y="103.479298" style="stroke: #000000"/>
      </g>
     </g>
     <g id="text_8">
      <!-- $\mathdefault{0.25}$ -->
      <g transform="translate(3.00024 106.567714) scale(0.09 -0.09)">
       <defs>
        <path id="LMRoman17-Regular-35" d="M 2669 1264 
C 2669 2030 2170 2624 1549 2624 
C 1222 2624 947 2503 730 2274 
L 730 3692 
C 794 3666 1056 3584 1325 3584 
C 1920 3584 2246 3911 2432 4100 
C 2432 4157 2432 4192 2394 4192 
C 2394 4192 2374 4192 2323 4163 
C 2099 4058 1837 3973 1517 3973 
C 1325 3973 1037 3999 723 4139 
C 653 4171 634 4171 634 4171 
C 602 4171 595 4164 595 4037 
L 595 2203 
C 595 2089 595 2057 659 2057 
C 691 2057 704 2070 736 2114 
C 941 2401 1222 2522 1542 2522 
C 1766 2522 2246 2382 2246 1289 
C 2246 1085 2246 715 2054 421 
C 1894 159 1645 25 1370 25 
C 947 25 518 320 403 814 
C 429 807 480 795 506 795 
C 589 795 749 840 749 1038 
C 749 1210 627 1280 506 1280 
C 358 1280 262 1190 262 1011 
C 262 454 704 -128 1382 -128 
C 2042 -128 2669 440 2669 1264 
z
" transform="scale(0.015625)"/>
       </defs>
       <use xlink:href="#LMRoman17-Regular-30" transform="scale(0.996264)"/>
       <use xlink:href="#LMMathItalic12-Regular-3a" transform="translate(45.690948 0) scale(0.996264)"/>
       <use xlink:href="#LMRoman17-Regular-32" transform="translate(72.788125 0) scale(0.996264)"/>
       <use xlink:href="#LMRoman17-Regular-35" transform="translate(118.479074 0) scale(0.996264)"/>
      </g>
     </g>
    </g>
    <g id="ytick_3">
     <g id="line2d_45">
      <g>
       <use xlink:href="#meb91400972" x="28.883231" y="32.21873" style="stroke: #000000"/>
      </g>
     </g>
     <g id="text_9">
      <!-- $\mathdefault{0.30}$ -->
      <g transform="translate(3.00024 35.307147) scale(0.09 -0.09)">
       <defs>
        <path id="LMRoman17-Regular-33" d="M 2720 1085 
C 2720 1707 2208 2157 1600 2227 
C 2086 2328 2554 2756 2554 3329 
C 2554 3820 2048 4179 1472 4179 
C 890 4179 378 3829 378 3329 
C 378 3110 544 3072 627 3072 
C 762 3072 877 3155 877 3321 
C 877 3486 762 3569 627 3569 
C 602 3569 570 3569 544 3557 
C 730 3959 1235 4032 1459 4032 
C 1683 4032 2106 3925 2106 3320 
C 2106 3143 2080 2828 1862 2550 
C 1670 2304 1453 2304 1242 2284 
C 1210 2284 1062 2269 1037 2269 
C 992 2263 966 2257 966 2208 
C 966 2163 973 2157 1101 2157 
L 1414 2157 
C 1984 2157 2234 1662 2234 1090 
C 2234 320 1824 25 1453 25 
C 1114 25 563 194 390 693 
C 422 680 454 680 486 680 
C 640 680 755 782 755 948 
C 755 1133 614 1216 486 1216 
C 378 1216 211 1165 211 926 
C 211 335 787 -128 1466 -128 
C 2176 -128 2720 430 2720 1085 
z
" transform="scale(0.015625)"/>
       </defs>
       <use xlink:href="#LMRoman17-Regular-30" transform="scale(0.996264)"/>
       <use xlink:href="#LMMathItalic12-Regular-3a" transform="translate(45.690948 0) scale(0.996264)"/>
       <use xlink:href="#LMRoman17-Regular-33" transform="translate(72.788125 0) scale(0.996264)"/>
       <use xlink:href="#LMRoman17-Regular-30" transform="translate(118.479074 0) scale(0.996264)"/>
      </g>
     </g>
    </g>
   </g>
   <g id="line2d_46">
    <path d="M 41.093463 103.700599 
L 45.232525 103.747921 
L 49.371587 103.805268 
L 53.510648 103.874718 
L 57.64971 103.958759 
L 61.788772 104.060357 
L 65.927834 104.183037 
L 70.066895 104.33096 
L 74.205957 104.509006 
L 78.345019 104.72285 
L 82.48408 104.979015 
L 86.623142 105.284884 
L 90.762204 105.648652 
L 94.901265 106.079164 
L 99.040327 106.585579 
L 103.179389 107.176802 
L 107.318451 107.860553 
L 111.457512 108.641971 
L 115.596574 109.521618 
L 119.735636 110.492753 
L 123.874697 111.537853 
L 128.013759 112.62448 
L 132.152821 113.700918 
L 136.291882 114.692481 
L 140.430944 115.500045 
L 144.570006 116.003188 
L 148.709068 116.071066 
L 152.848129 115.58457 
L 156.987191 114.472398 
L 161.126253 112.759026 
L 165.265314 110.609978 
L 169.404376 108.338482 
L 173.543438 106.327562 
L 177.682499 104.868974 
L 181.821561 104.025283 
L 185.960623 103.646328 
L 190.099685 103.517614 
L 194.238746 103.485583 
L 198.377808 103.47999 
L 202.51687 103.479345 
L 206.655931 103.479299 
L 210.794993 103.479298 
L 214.934055 103.479298 
L 219.073116 103.479298 
L 223.212178 103.479298 
L 227.35124 103.479298 
L 231.490302 103.479298 
L 235.629363 103.479298 
L 239.768425 103.479298 
L 243.907487 103.479298 
L 248.046548 103.479298 
L 252.18561 103.479298 
L 255.16 103.479298 
" clip-path="url(#pf7159fd4fa)" style="fill: none; stroke: #450559; stroke-width: 3; stroke-linecap: square"/>
   </g>
   <g id="line2d_47">
    <path d="M 129.928636 224.2 
L 132.152821 211.672503 
L 136.291882 192.492459 
L 140.430944 176.712557 
L 144.570006 163.729673 
L 148.709068 153.043738 
L 152.848129 144.220377 
L 156.987191 136.825582 
L 161.126253 130.361374 
L 165.265314 124.316621 
L 169.404376 118.413447 
L 173.543438 112.887385 
L 177.682499 108.413644 
L 181.821561 105.530715 
L 185.960623 104.129371 
L 190.099685 103.631062 
L 194.238746 103.504367 
L 198.377808 103.482067 
L 202.51687 103.479487 
L 206.655931 103.479305 
L 210.794993 103.479298 
L 214.934055 103.479298 
L 219.073116 103.479298 
L 223.212178 103.479298 
L 227.35124 103.479298 
L 231.490302 103.479298 
L 235.629363 103.479298 
L 239.768425 103.479298 
L 243.907487 103.479298 
L 248.046548 103.479298 
L 252.18561 103.479298 
L 255.16 103.479298 
" clip-path="url(#pf7159fd4fa)" style="fill: none; stroke-dasharray: 11.1,4.8; stroke-dashoffset: 0; stroke: #450559; stroke-width: 3"/>
   </g>
   <g id="line2d_48">
    <path d="M 41.093463 104.141554 
L 45.232525 104.282741 
L 49.371587 104.453636 
L 53.510648 104.660302 
L 57.64971 104.909955 
L 61.788772 105.211133 
L 65.927834 105.573887 
L 70.066895 106.009947 
L 74.205957 106.53288 
L 78.345019 107.158179 
L 82.48408 107.90326 
L 86.623142 108.787286 
L 90.762204 109.830758 
L 94.901265 111.054739 
L 99.040327 112.479609 
L 103.179389 114.123224 
L 107.318451 115.99837 
L 111.457512 118.10952 
L 115.596574 120.44901 
L 119.735636 122.99303 
L 123.874697 125.698054 
L 128.013759 128.498565 
L 132.152821 131.3069 
L 136.291882 134.015676 
L 140.430944 136.502739 
L 144.570006 138.638161 
L 148.709068 140.292899 
L 152.848129 141.348292 
L 156.987191 141.702957 
L 161.126253 141.269714 
L 165.265314 139.95765 
L 169.404376 137.652699 
L 173.543438 134.237915 
L 177.682499 129.695595 
L 181.821561 124.265095 
L 185.960623 118.520941 
L 190.099685 113.230971 
L 194.238746 109.040774 
L 198.377808 106.215312 
L 202.51687 104.613617 
L 206.655931 103.864109 
L 210.794993 103.582155 
L 214.934055 103.499942 
L 219.073116 103.482227 
L 223.212178 103.47957 
L 227.35124 103.479313 
L 231.490302 103.479298 
L 235.629363 103.479298 
L 239.768425 103.479298 
L 243.907487 103.479298 
L 248.046548 103.479298 
L 252.18561 103.479298 
L 255.16 103.479298 
" clip-path="url(#pf7159fd4fa)" style="fill: none; stroke: #1f968b; stroke-width: 3; stroke-linecap: square"/>
   </g>
   <g id="line2d_49">
    <path d="M 165.719319 224.2 
L 169.404376 205.286195 
L 173.543438 188.018768 
L 177.682499 173.592872 
L 181.821561 160.612181 
L 185.960623 147.822685 
L 190.099685 134.928109 
L 194.238746 123.006003 
L 198.377808 113.717809 
L 202.51687 107.890306 
L 206.655931 105.003731 
L 210.794993 103.889661 
L 214.934055 103.56183 
L 219.073116 103.491014 
L 223.212178 103.480389 
L 227.35124 103.479359 
L 231.490302 103.479299 
L 235.629363 103.479298 
L 239.768425 103.479298 
L 243.907487 103.479298 
L 248.046548 103.479298 
L 252.18561 103.479298 
L 255.16 103.479298 
" clip-path="url(#pf7159fd4fa)" style="fill: none; stroke-dasharray: 11.1,4.8; stroke-dashoffset: 0; stroke: #1f968b; stroke-width: 3"/>
   </g>
   <g id="line2d_50">
    <path d="M 41.093463 104.273414 
L 45.232525 104.44256 
L 49.371587 104.647224 
L 53.510648 104.894624 
L 57.64971 105.193328 
L 61.788772 105.553458 
L 65.927834 105.986892 
L 70.066895 106.507448 
L 74.205957 107.131036 
L 78.345019 107.875733 
L 82.48408 108.761722 
L 86.623142 109.811028 
L 90.762204 111.04696 
L 94.901265 112.493123 
L 99.040327 114.171922 
L 103.179389 116.102407 
L 107.318451 118.297475 
L 111.457512 120.760483 
L 115.596574 123.481623 
L 119.735636 126.434585 
L 123.874697 129.574363 
L 128.013759 132.837023 
L 132.152821 136.142068 
L 136.291882 139.397491 
L 140.430944 142.507171 
L 144.570006 145.380341 
L 148.709068 147.942745 
L 152.848129 150.147047 
L 156.987191 151.974854 
L 161.126253 153.418893 
L 165.265314 154.441147 
L 169.404376 154.924465 
L 173.543438 154.656478 
L 177.682499 153.378079 
L 181.821561 150.883496 
L 185.960623 147.109837 
L 190.099685 142.160822 
L 194.238746 136.27616 
L 198.377808 129.804974 
L 202.51687 123.208654 
L 206.655931 117.045469 
L 210.794993 111.868204 
L 214.934055 108.043875 
L 219.073116 105.613859 
L 223.212178 104.314493 
L 227.35124 103.743967 
L 231.490302 103.5445 
L 235.629363 103.491156 
L 239.768425 103.480791 
L 243.907487 103.479418 
L 248.046548 103.479303 
L 252.18561 103.479298 
L 255.16 103.479298 
" clip-path="url(#pf7159fd4fa)" style="fill: none; stroke: #6ece58; stroke-width: 3; stroke-linecap: square"/>
   </g>
   <g id="line2d_51">
    <path d="M 187.200847 224.2 
L 190.099685 208.651805 
L 194.238746 189.934042 
L 198.377808 173.726888 
L 202.51687 158.939809 
L 206.655931 144.780681 
L 210.794993 131.377868 
L 214.934055 119.88454 
L 219.073116 111.584327 
L 223.212178 106.751273 
L 227.35124 104.530953 
L 231.490302 103.739679 
L 235.629363 103.526717 
L 239.768425 103.48527 
L 243.907487 103.479779 
L 248.046548 103.47932 
L 252.18561 103.479298 
L 255.16 103.479298 
" clip-path="url(#pf7159fd4fa)" style="fill: none; stroke-dasharray: 11.1,4.8; stroke-dashoffset: 0; stroke: #6ece58; stroke-width: 3"/>
   </g>
   <g id="line2d_52">
    <path d="M 41.093463 104.361212 
L 45.232525 104.548946 
L 49.371587 104.776048 
L 53.510648 105.050493 
L 57.64971 105.381739 
L 61.788772 105.780938 
L 65.927834 106.261155 
L 70.066895 106.837554 
L 74.205957 107.527546 
L 78.345019 108.350844 
L 82.48408 109.329359 
L 86.623142 110.486874 
L 90.762204 111.848372 
L 94.901265 113.43893 
L 99.040327 115.282041 
L 103.179389 117.397313 
L 107.318451 119.79755 
L 111.457512 122.485405 
L 115.596574 125.450022 
L 119.735636 128.664355 
L 123.874697 132.084028 
L 128.013759 135.648524 
L 132.152821 139.285127 
L 136.291882 142.915522 
L 140.430944 146.464768 
L 144.570006 149.872594 
L 148.709068 153.10642 
L 152.848129 156.171932 
L 156.987191 159.111146 
L 161.126253 161.976674 
L 165.265314 164.783628 
L 169.404376 167.464617 
L 173.543438 169.867585 
L 177.682499 171.816557 
L 181.821561 173.204512 
L 185.960623 174.051086 
L 190.099685 174.483236 
L 194.238746 174.663139 
L 198.377808 174.722241 
L 202.51687 174.73692 
L 206.655931 174.739531 
L 210.794993 174.739842 
L 214.934055 174.739864 
L 219.073116 174.739865 
L 223.212178 174.739865 
L 227.35124 174.739865 
L 231.490302 174.739865 
L 235.629363 174.739865 
L 239.768425 174.739865 
L 243.907487 174.739865 
L 248.046548 174.739865 
L 252.18561 174.739865 
L 255.16 174.739865 
" clip-path="url(#pf7159fd4fa)" style="fill: none; stroke: #efe51c; stroke-width: 3; stroke-linecap: square"/>
   </g>
   <g id="line2d_53">
    <path d="M 111.064754 -1 
L 111.457512 2.521266 
L 115.596574 33.051467 
L 119.735636 58.169401 
L 123.874697 78.834531 
L 128.013759 95.836232 
L 132.152821 109.823942 
L 136.291882 121.33197 
L 140.430944 130.799937 
L 144.570006 138.590046 
L 148.709068 145.004317 
L 152.848129 150.308742 
L 156.987191 154.765181 
L 161.126253 158.644125 
L 165.265314 162.178688 
L 169.404376 165.47325 
L 173.543438 168.4517 
L 177.682499 170.919704 
L 181.821561 172.714492 
L 185.960623 173.825907 
L 190.099685 174.398308 
L 194.238746 174.637619 
L 198.377808 174.716368 
L 202.51687 174.735938 
L 206.655931 174.739419 
L 210.794993 174.739834 
L 214.934055 174.739864 
L 219.073116 174.739865 
L 223.212178 174.739865 
L 227.35124 174.739865 
L 231.490302 174.739865 
L 235.629363 174.739865 
L 239.768425 174.739865 
L 243.907487 174.739865 
L 248.046548 174.739865 
L 252.18561 174.739865 
L 255.16 174.739865 
" clip-path="url(#pf7159fd4fa)" style="fill: none; stroke-dasharray: 11.1,4.8; stroke-dashoffset: 0; stroke: #efe51c; stroke-width: 3"/>
   </g>
   <g id="patch_3">
    <path d="M 28.883231 188.991979 
L 28.883231 17.966616 
" style="fill: none; stroke: #000000; stroke-width: 2; stroke-linejoin: miter; stroke-linecap: square"/>
   </g>
   <g id="patch_4">
    <path d="M 251.15976 188.991979 
L 251.15976 17.966616 
" style="fill: none; stroke: #000000; stroke-width: 2; stroke-linejoin: miter; stroke-linecap: square"/>
   </g>
   <g id="patch_5">
    <path d="M 28.883231 188.991979 
L 251.15976 188.991979 
" style="fill: none; stroke: #000000; stroke-width: 2; stroke-linejoin: miter; stroke-linecap: square"/>
   </g>
   <g id="patch_6">
    <path d="M 28.883231 17.966616 
L 251.15976 17.966616 
" style="fill: none; stroke: #000000; stroke-width: 2; stroke-linejoin: miter; stroke-linecap: square"/>
   </g>
   <g id="text_10">
    <!-- $\langle \hat{n}_{\eta,\uparrow}\hat{n}_{\eta',\uparrow} \rangle $ at $\nu=3$ -->
    <g transform="translate(92.249096 11.966616) scale(0.12 -0.12)">
     <defs>
      <path id="LMMathSymbols10-Regular-68" d="M 2125 -1472 
C 2125 -1472 2125 -1434 2093 -1357 
L 966 1600 
L 2093 4557 
C 2125 4634 2125 4672 2125 4672 
C 2125 4742 2067 4800 1997 4800 
C 1914 4800 1888 4742 1862 4672 
L 736 1715 
C 704 1638 704 1600 704 1600 
C 704 1600 704 1562 736 1485 
L 1856 -1459 
C 1888 -1536 1907 -1600 1997 -1600 
C 2067 -1600 2125 -1542 2125 -1472 
z
" transform="scale(0.015625)"/>
      <path id="LMRoman17-Regular-5e" d="M 2438 3376 
L 1466 4408 
L 493 3376 
L 576 3287 
L 1466 3975 
L 2355 3287 
L 2438 3376 
z
" transform="scale(0.015625)"/>
      <path id="LMMathItalic12-Regular-6e" d="M 3552 913 
C 3552 945 3526 971 3488 971 
C 3430 971 3424 952 3392 843 
C 3245 319 3002 64 2752 64 
C 2688 64 2586 64 2586 269 
C 2586 429 2656 621 2694 710 
C 2822 1063 3091 1780 3091 2145 
C 3091 2528 2867 2816 2381 2816 
C 1811 2816 1510 2415 1395 2255 
C 1376 2618 1114 2816 832 2816 
C 627 2816 486 2695 378 2478 
C 262 2248 173 1865 173 1839 
C 173 1814 198 1782 243 1782 
C 294 1782 301 1788 339 1935 
C 442 2325 557 2689 813 2689 
C 960 2689 1011 2586 1011 2395 
C 1011 2254 947 2005 902 1807 
L 723 1118 
L 595 594 
C 550 428 480 128 480 96 
C 480 6 550 -64 646 -64 
C 723 -64 813 -26 864 70 
C 877 102 934 326 966 453 
L 1107 1028 
L 1318 1871 
C 1331 1910 1491 2229 1728 2433 
C 1894 2586 2112 2689 2362 2689 
C 2618 2689 2707 2497 2707 2242 
C 2707 1878 2445 1150 2317 805 
C 2259 651 2227 568 2227 453 
C 2227 166 2426 -64 2733 -64 
C 3328 -64 3552 875 3552 913 
z
" transform="scale(0.015625)"/>
      <path id="LMMathItalic12-Regular-11" d="M 3040 1768 
C 3072 1896 3091 1972 3091 2146 
C 3091 2529 2867 2816 2381 2816 
C 1811 2816 1510 2415 1395 2255 
C 1376 2618 1114 2816 832 2816 
C 646 2816 499 2727 378 2484 
C 262 2254 173 1865 173 1839 
C 173 1814 198 1782 243 1782 
C 294 1782 301 1788 339 1935 
C 435 2312 557 2689 813 2689 
C 960 2689 1011 2586 1011 2395 
C 1011 2254 947 2005 902 1807 
L 723 1118 
L 595 594 
C 550 428 480 128 480 96 
C 480 6 550 -64 646 -64 
C 723 -64 813 -26 864 70 
C 877 102 934 326 966 453 
L 1107 1028 
L 1318 1871 
C 1331 1910 1491 2229 1728 2433 
C 1894 2586 2112 2689 2362 2689 
C 2618 2689 2707 2497 2707 2242 
C 2707 2056 2682 1953 2650 1832 
L 1907 -1108 
C 1901 -1140 1888 -1178 1888 -1216 
C 1888 -1312 1965 -1376 2061 -1376 
C 2118 -1376 2253 -1351 2304 -1159 
L 3040 1768 
z
" transform="scale(0.015625)"/>
      <path id="LMMathItalic12-Regular-3b" d="M 1248 -31 
C 1248 343 1126 619 864 619 
C 659 619 557 453 557 313 
C 557 172 653 0 870 0 
C 954 0 1024 26 1082 83 
C 1094 96 1107 96 1107 96 
C 1107 96 1120 5 1120 -27 
C 1120 -240 1082 -659 710 -1080 
C 640 -1157 640 -1183 640 -1183 
C 640 -1216 672 -1248 704 -1248 
C 755 -1248 1248 -771 1248 -31 
z
" transform="scale(0.015625)"/>
      <path id="LMMathSymbols10-Regular-22" d="M 3077 2728 
L 3077 2843 
C 3077 2881 3058 2907 3026 2913 
C 2309 3080 1765 3668 1663 4398 
C 1657 4430 1631 4456 1593 4456 
C 1554 4456 1529 4430 1522 4398 
C 1420 3668 876 3080 159 2913 
C 127 2907 108 2881 108 2843 
L 108 2728 
C 108 2689 140 2657 191 2664 
C 722 2779 1177 3105 1465 3566 
L 1465 -1100 
C 1465 -1189 1529 -1228 1593 -1228 
C 1657 -1228 1721 -1189 1721 -1100 
L 1721 3566 
C 2009 3105 2463 2779 2994 2664 
C 3045 2657 3077 2689 3077 2728 
z
" transform="scale(0.015625)"/>
      <path id="LMMathSymbols10-Regular-30" d="M 1632 3066 
C 1677 3162 1677 3219 1677 3245 
C 1677 3437 1498 3578 1318 3578 
C 1062 3578 1005 3366 979 3283 
L 205 493 
C 198 467 186 435 186 403 
C 186 333 352 288 403 288 
C 403 288 448 288 486 378 
L 1632 3066 
z
" transform="scale(0.015625)"/>
      <path id="LMMathSymbols10-Regular-69" d="M 1779 1600 
C 1779 1600 1779 1638 1747 1715 
L 627 4659 
C 595 4736 576 4800 486 4800 
C 416 4800 358 4742 358 4672 
C 358 4672 358 4634 390 4557 
L 1517 1600 
L 390 -1357 
C 358 -1434 358 -1472 358 -1472 
C 358 -1542 416 -1600 486 -1600 
C 570 -1600 595 -1542 621 -1472 
L 1747 1485 
C 1779 1562 1779 1600 1779 1600 
z
" transform="scale(0.015625)"/>
      <path id="LMRoman17-Regular-61" d="M 2874 567 
L 2874 920 
L 2758 920 
L 2758 562 
C 2758 178 2586 128 2502 128 
C 2240 128 2240 458 2240 738 
L 2240 1653 
C 2240 2072 2240 2294 1971 2543 
C 1734 2752 1459 2816 1242 2816 
C 736 2816 371 2407 371 1971 
C 371 1728 563 1728 602 1728 
C 685 1728 832 1778 832 1954 
C 832 2112 710 2181 602 2181 
C 576 2181 544 2174 525 2168 
C 659 2592 1005 2714 1229 2714 
C 1549 2714 1901 2429 1901 1885 
L 1901 1600 
C 1523 1600 1069 1549 710 1357 
C 307 1133 192 813 192 570 
C 192 77 768 -64 1107 -64 
C 1459 -64 1786 139 1926 511 
C 1939 233 2118 -18 2400 -18 
C 2534 -18 2874 70 2874 567 
z
M 1901 870 
C 1901 317 1504 38 1152 38 
C 832 38 582 275 582 570 
C 582 761 666 1100 1037 1305 
C 1344 1478 1696 1504 1901 1504 
L 1901 870 
z
" transform="scale(0.015625)"/>
      <path id="LMRoman17-Regular-74" d="M 1965 777 
L 1965 1140 
L 1850 1140 
L 1850 783 
C 1850 344 1677 51 1408 51 
C 1222 51 966 178 966 758 
L 966 2560 
L 1862 2560 
L 1862 2725 
L 966 2725 
L 966 3904 
L 851 3904 
C 838 3245 614 2668 70 2668 
L 70 2560 
L 627 2560 
L 627 771 
C 627 650 627 -64 1370 -64 
C 1747 -64 1965 306 1965 777 
z
" transform="scale(0.015625)"/>
      <path id="LMMathItalic12-Regular-17" d="M 3290 2657 
C 3290 2759 3206 2816 3123 2816 
C 2938 2816 2893 2644 2880 2599 
C 2502 1265 1626 473 774 192 
L 1408 2753 
C 1408 2778 1389 2816 1338 2816 
C 1293 2816 691 2752 595 2752 
C 525 2745 461 2739 461 2624 
C 461 2560 512 2560 602 2560 
C 902 2560 922 2515 922 2445 
C 922 2419 909 2343 902 2317 
L 339 64 
C 339 38 358 0 403 0 
L 538 0 
C 627 0 1600 230 2349 996 
C 3174 1846 3290 2631 3290 2657 
z
" transform="scale(0.015625)"/>
      <path id="LMRoman17-Regular-3d" d="M 4307 2125 
C 4307 2240 4198 2240 4090 2240 
L 512 2240 
C 403 2240 294 2240 294 2125 
C 294 2017 390 2017 486 2017 
L 4115 2017 
C 4211 2017 4307 2017 4307 2125 
z
M 4307 1011 
C 4307 1119 4211 1119 4115 1119 
L 486 1119 
C 390 1119 294 1119 294 1011 
C 294 896 403 896 512 896 
L 4090 896 
C 4198 896 4307 896 4307 1011 
z
" transform="scale(0.015625)"/>
     </defs>
     <use xlink:href="#LMMathSymbols10-Regular-68" transform="scale(0.996264)"/>
     <use xlink:href="#LMRoman17-Regular-5e" transform="translate(45.013283 0.005883) scale(0.996264)"/>
     <use xlink:href="#LMMathItalic12-Regular-6e" transform="translate(38.743734 0) scale(0.996264)"/>
     <use xlink:href="#LMMathItalic12-Regular-11" transform="translate(96.973781 -14.943915) scale(0.697382)"/>
     <use xlink:href="#LMMathItalic12-Regular-3b" transform="translate(133.166276 -14.943915) scale(0.697382)"/>
     <use xlink:href="#LMMathSymbols10-Regular-22" transform="translate(152.134209 -14.943915) scale(0.697382)"/>
     <use xlink:href="#LMRoman17-Regular-5e" transform="translate(193.7711 0.005883) scale(0.996264)"/>
     <use xlink:href="#LMMathItalic12-Regular-6e" transform="translate(187.501551 0) scale(0.996264)"/>
     <use xlink:href="#LMMathItalic12-Regular-11" transform="translate(245.731598 -14.943915) scale(0.697382)"/>
     <use xlink:href="#LMMathSymbols10-Regular-30" transform="translate(281.924093 5.202658) scale(0.498132)"/>
     <use xlink:href="#LMMathItalic12-Regular-3b" transform="translate(296.120824 -14.943915) scale(0.697382)"/>
     <use xlink:href="#LMMathSymbols10-Regular-22" transform="translate(315.088757 -14.943915) scale(0.697382)"/>
     <use xlink:href="#LMMathSymbols10-Regular-69" transform="translate(350.456099 0) scale(0.996264)"/>
     <use xlink:href="#LMRoman17-Regular-61" transform="translate(419.275982 0) scale(0.996264)"/>
     <use xlink:href="#LMRoman17-Regular-74" transform="translate(464.96693 0) scale(0.996264)"/>
     <use xlink:href="#LMMathItalic12-Regular-17" transform="translate(530.324607 0) scale(0.996264)"/>
     <use xlink:href="#LMRoman17-Regular-3d" transform="translate(612.481408 0) scale(0.996264)"/>
     <use xlink:href="#LMRoman17-Regular-33" transform="translate(711.871437 0) scale(0.996264)"/>
    </g>
   </g>
   <g id="legend_1">
    <g id="patch_7">
     <path d="M 42.218348 75.340464 
L 244.85976 75.340464 
Q 246.65976 75.340464 246.65976 73.540464 
L 246.65976 24.266616 
Q 246.65976 22.466616 244.85976 22.466616 
L 42.218348 22.466616 
Q 40.418348 22.466616 40.418348 24.266616 
L 40.418348 73.540464 
Q 40.418348 75.340464 42.218348 75.340464 
z
" style="fill: #ffffff; opacity: 0.8; stroke: #cccccc; stroke-linejoin: miter"/>
    </g>
    <g id="line2d_54">
     <path d="M 44.018348 29.216616 
L 53.018348 29.216616 
L 62.018348 29.216616 
" style="fill: none; stroke: #450559; stroke-width: 3; stroke-linecap: square"/>
    </g>
    <g id="text_11">
     <!-- $\alpha=0.25$ Exact -->
     <g transform="translate(69.218348 32.366616) scale(0.09 -0.09)">
      <defs>
       <path id="LMMathItalic12-Regular-b" d="M 3661 377 
C 3661 434 3616 434 3597 434 
C 3546 434 3539 415 3520 364 
C 3462 204 3315 64 3162 64 
C 2963 64 2963 473 2963 862 
C 3616 1641 3770 2452 3770 2452 
C 3770 2510 3718 2510 3699 2510 
C 3642 2510 3635 2491 3610 2376 
C 3526 2095 3360 1597 2963 1073 
L 2963 1616 
C 2963 2235 2611 2816 1933 2816 
C 1094 2816 256 1903 256 996 
C 256 441 602 -64 1254 -64 
C 1651 -64 2125 89 2579 472 
C 2669 115 2867 -64 3142 -64 
C 3488 -64 3661 294 3661 377 
z
M 2560 626 
C 1997 121 1491 64 1267 64 
C 813 64 685 466 685 766 
C 685 1041 826 1692 1024 2044 
C 1286 2491 1645 2689 1933 2689 
C 2554 2689 2554 1878 2554 1341 
L 2547 856 
C 2547 728 2554 696 2560 626 
z
" transform="scale(0.015625)"/>
       <path id="LMRoman17-Regular-45" d="M 3885 1615 
L 3770 1615 
C 3629 676 3546 166 2419 166 
L 1530 166 
C 1274 166 1261 197 1261 414 
L 1261 2176 
L 1862 2176 
C 2464 2176 2522 1960 2522 1430 
L 2637 1430 
L 2637 3081 
L 2522 3081 
C 2522 2557 2464 2342 1862 2342 
L 1261 2342 
L 1261 3913 
C 1261 4128 1274 4160 1530 4160 
L 2406 4160 
C 3398 4160 3514 3769 3603 2929 
L 3718 2929 
L 3565 4325 
L 326 4325 
L 326 4160 
C 768 4160 838 4160 838 3874 
L 838 451 
C 838 166 768 166 326 166 
L 326 0 
L 3654 0 
L 3885 1615 
z
" transform="scale(0.015625)"/>
       <path id="LMRoman17-Regular-78" d="M 3091 -6 
L 3091 160 
C 2771 160 2675 172 2522 370 
L 1664 1478 
L 2253 2216 
C 2464 2458 2707 2560 2989 2560 
L 2989 2726 
L 2541 2726 
C 2368 2726 2170 2726 2022 2732 
L 2022 2566 
C 2112 2553 2163 2489 2163 2400 
C 2163 2285 2099 2215 2067 2171 
L 1594 1573 
L 1030 2306 
C 973 2376 973 2388 973 2420 
C 973 2497 1037 2560 1146 2560 
L 1146 2732 
C 992 2726 717 2726 557 2726 
C 384 2726 179 2726 38 2732 
L 38 2560 
C 384 2560 461 2534 614 2343 
L 1350 1395 
C 1363 1382 1395 1344 1395 1325 
C 1395 1299 838 619 768 530 
C 480 185 179 160 6 160 
L 6 0 
L 454 0 
C 582 0 864 0 979 -6 
L 979 160 
C 941 166 838 179 838 325 
C 838 440 890 510 947 586 
L 1478 1236 
L 2035 512 
C 2086 442 2163 346 2163 301 
C 2163 211 2086 160 1984 160 
L 1984 -6 
C 2138 0 2413 0 2573 0 
C 2746 0 2950 0 3091 -6 
z
" transform="scale(0.015625)"/>
       <path id="LMRoman17-Regular-63" d="M 2458 748 
C 2458 774 2451 793 2406 793 
C 2362 793 2355 787 2330 703 
C 2163 180 1798 51 1523 51 
C 1114 51 621 427 621 1369 
C 621 2338 1094 2688 1472 2688 
C 1722 2688 2093 2573 2234 2240 
C 2112 2240 1933 2240 1933 2017 
C 1933 1838 2080 1787 2163 1787 
C 2208 1787 2394 1807 2394 2024 
C 2394 2467 1958 2803 1466 2803 
C 787 2803 211 2178 211 1363 
C 211 516 813 -64 1466 -64 
C 2259 -64 2458 677 2458 748 
z
" transform="scale(0.015625)"/>
      </defs>
      <use xlink:href="#LMMathItalic12-Regular-b" transform="scale(0.996264)"/>
      <use xlink:href="#LMRoman17-Regular-3d" transform="translate(90.355032 0) scale(0.996264)"/>
      <use xlink:href="#LMRoman17-Regular-30" transform="translate(189.74506 0) scale(0.996264)"/>
      <use xlink:href="#LMMathItalic12-Regular-3a" transform="translate(235.436008 0) scale(0.996264)"/>
      <use xlink:href="#LMRoman17-Regular-32" transform="translate(262.533185 0) scale(0.996264)"/>
      <use xlink:href="#LMRoman17-Regular-35" transform="translate(308.224134 0) scale(0.996264)"/>
      <use xlink:href="#LMRoman17-Regular-45" transform="translate(383.991231 0) scale(0.996264)"/>
      <use xlink:href="#LMRoman17-Regular-78" transform="translate(446.57478 0) scale(0.996264)"/>
      <use xlink:href="#LMRoman17-Regular-61" transform="translate(494.865993 0) scale(0.996264)"/>
      <use xlink:href="#LMRoman17-Regular-63" transform="translate(540.556942 0) scale(0.996264)"/>
      <use xlink:href="#LMRoman17-Regular-74" transform="translate(581.041751 0) scale(0.996264)"/>
     </g>
    </g>
    <g id="line2d_55">
     <path d="M 44.018348 41.760078 
L 53.018348 41.760078 
L 62.018348 41.760078 
" style="fill: none; stroke-dasharray: 11.1,4.8; stroke-dashoffset: 0; stroke: #450559; stroke-width: 3"/>
    </g>
    <g id="text_12">
     <!-- $\alpha=0.25$ Approx -->
     <g transform="translate(69.218348 44.910078) scale(0.09 -0.09)">
      <defs>
       <path id="LMRoman17-Regular-41" d="M 4282 -13 
L 4282 153 
C 3942 153 3827 153 3744 387 
L 2323 4378 
C 2291 4461 2278 4480 2214 4480 
C 2150 4480 2138 4461 2106 4378 
L 749 566 
C 627 223 371 153 147 153 
L 147 -13 
C 262 0 518 0 640 0 
C 800 0 1056 0 1210 -13 
L 1210 153 
C 909 153 864 361 864 439 
C 864 497 877 530 890 569 
L 1229 1536 
L 2906 1536 
L 3290 442 
C 3322 365 3322 352 3322 327 
C 3322 153 3046 153 2925 153 
L 2925 0 
C 3110 0 3443 0 3642 0 
C 3808 0 4128 0 4282 -13 
z
M 2848 1702 
L 1286 1702 
L 2067 3874 
L 2848 1702 
z
" transform="scale(0.015625)"/>
       <path id="LMRoman17-Regular-70" d="M 3053 1388 
C 3053 2191 2496 2802 1837 2802 
C 1453 2802 1139 2592 960 2338 
L 960 2802 
L 198 2732 
L 198 2567 
C 576 2567 634 2528 634 2223 
L 634 -789 
C 634 -1031 608 -1063 198 -1063 
L 198 -1228 
C 352 -1216 634 -1216 800 -1216 
C 966 -1216 1254 -1216 1408 -1228 
L 1408 -1063 
C 998 -1063 973 -1037 973 -789 
L 973 402 
C 1158 134 1427 -38 1766 -38 
C 2406 -38 3053 523 3053 1388 
z
M 2643 1382 
C 2643 656 2234 64 1728 64 
C 1498 64 1248 172 1056 472 
C 973 612 973 650 973 752 
L 973 2012 
C 973 2102 973 2235 1222 2471 
C 1254 2497 1472 2688 1792 2688 
C 2259 2688 2643 2108 2643 1382 
z
" transform="scale(0.015625)"/>
       <path id="LMRoman17-Regular-72" d="M 2131 2458 
C 2131 2663 1926 2790 1709 2790 
C 1222 2790 1011 2317 947 2093 
L 941 2093 
L 941 2790 
L 198 2720 
L 198 2554 
C 576 2554 634 2515 634 2208 
L 634 428 
C 634 184 608 153 198 153 
L 198 -13 
C 352 0 646 0 813 0 
C 998 0 1325 0 1498 -13 
L 1498 153 
C 1037 153 960 153 960 440 
L 960 1497 
C 960 2112 1222 2688 1702 2688 
C 1747 2688 1792 2682 1837 2662 
C 1837 2662 1696 2617 1696 2452 
C 1696 2298 1818 2234 1914 2234 
C 1990 2234 2131 2279 2131 2458 
z
" transform="scale(0.015625)"/>
       <path id="LMRoman17-Regular-6f" d="M 2758 1356 
C 2758 2176 2163 2816 1466 2816 
C 768 2816 173 2176 173 1356 
C 173 551 768 -64 1466 -64 
C 2163 -64 2758 551 2758 1356 
z
M 2349 1408 
C 2349 1158 2336 775 2163 467 
C 1984 173 1709 51 1466 51 
C 1165 51 909 230 762 480 
C 602 767 582 1126 582 1408 
C 582 1677 595 2010 762 2298 
C 890 2509 1139 2714 1466 2714 
C 1754 2714 1997 2554 2150 2330 
C 2349 2029 2349 1607 2349 1408 
z
" transform="scale(0.015625)"/>
      </defs>
      <use xlink:href="#LMMathItalic12-Regular-b" transform="scale(0.996264)"/>
      <use xlink:href="#LMRoman17-Regular-3d" transform="translate(90.355032 0) scale(0.996264)"/>
      <use xlink:href="#LMRoman17-Regular-30" transform="translate(189.74506 0) scale(0.996264)"/>
      <use xlink:href="#LMMathItalic12-Regular-3a" transform="translate(235.436008 0) scale(0.996264)"/>
      <use xlink:href="#LMRoman17-Regular-32" transform="translate(262.533185 0) scale(0.996264)"/>
      <use xlink:href="#LMRoman17-Regular-35" transform="translate(308.224134 0) scale(0.996264)"/>
      <use xlink:href="#LMRoman17-Regular-41" transform="translate(383.991231 0) scale(0.996264)"/>
      <use xlink:href="#LMRoman17-Regular-70" transform="translate(453.060909 0) scale(0.996264)"/>
      <use xlink:href="#LMRoman17-Regular-70" transform="translate(503.957997 0) scale(0.996264)"/>
      <use xlink:href="#LMRoman17-Regular-72" transform="translate(554.855084 0) scale(0.996264)"/>
      <use xlink:href="#LMRoman17-Regular-6f" transform="translate(590.136612 0) scale(0.996264)"/>
      <use xlink:href="#LMRoman17-Regular-78" transform="translate(633.225107 0) scale(0.996264)"/>
     </g>
    </g>
    <g id="line2d_56">
     <path d="M 44.018348 54.30354 
L 53.018348 54.30354 
L 62.018348 54.30354 
" style="fill: none; stroke: #1f968b; stroke-width: 3; stroke-linecap: square"/>
    </g>
    <g id="text_13">
     <!-- $\alpha=0.75$ Exact -->
     <g transform="translate(69.218348 57.45354) scale(0.09 -0.09)">
      <defs>
       <path id="LMRoman17-Regular-37" d="M 2886 3941 
L 2886 4081 
L 1382 4081 
C 634 4081 621 4165 595 4288 
L 480 4288 
L 294 3094 
L 410 3094 
C 429 3215 474 3540 550 3661 
C 589 3712 1062 3712 1171 3712 
L 2579 3712 
L 1869 2661 
C 1395 1954 1069 999 1069 165 
C 1069 89 1069 -128 1299 -128 
C 1530 -128 1530 89 1530 171 
L 1530 465 
C 1530 1508 1709 2196 2003 2636 
L 2886 3941 
z
" transform="scale(0.015625)"/>
      </defs>
      <use xlink:href="#LMMathItalic12-Regular-b" transform="scale(0.996264)"/>
      <use xlink:href="#LMRoman17-Regular-3d" transform="translate(90.355032 0) scale(0.996264)"/>
      <use xlink:href="#LMRoman17-Regular-30" transform="translate(189.74506 0) scale(0.996264)"/>
      <use xlink:href="#LMMathItalic12-Regular-3a" transform="translate(235.436008 0) scale(0.996264)"/>
      <use xlink:href="#LMRoman17-Regular-37" transform="translate(262.533185 0) scale(0.996264)"/>
      <use xlink:href="#LMRoman17-Regular-35" transform="translate(308.224134 0) scale(0.996264)"/>
      <use xlink:href="#LMRoman17-Regular-45" transform="translate(383.991231 0) scale(0.996264)"/>
      <use xlink:href="#LMRoman17-Regular-78" transform="translate(446.57478 0) scale(0.996264)"/>
      <use xlink:href="#LMRoman17-Regular-61" transform="translate(494.865993 0) scale(0.996264)"/>
      <use xlink:href="#LMRoman17-Regular-63" transform="translate(540.556942 0) scale(0.996264)"/>
      <use xlink:href="#LMRoman17-Regular-74" transform="translate(581.041751 0) scale(0.996264)"/>
     </g>
    </g>
    <g id="line2d_57">
     <path d="M 44.018348 66.847002 
L 53.018348 66.847002 
L 62.018348 66.847002 
" style="fill: none; stroke-dasharray: 11.1,4.8; stroke-dashoffset: 0; stroke: #1f968b; stroke-width: 3"/>
    </g>
    <g id="text_14">
     <!-- $\alpha=0.75$ Approx -->
     <g transform="translate(69.218348 69.997002) scale(0.09 -0.09)">
      <use xlink:href="#LMMathItalic12-Regular-b" transform="scale(0.996264)"/>
      <use xlink:href="#LMRoman17-Regular-3d" transform="translate(90.355032 0) scale(0.996264)"/>
      <use xlink:href="#LMRoman17-Regular-30" transform="translate(189.74506 0) scale(0.996264)"/>
      <use xlink:href="#LMMathItalic12-Regular-3a" transform="translate(235.436008 0) scale(0.996264)"/>
      <use xlink:href="#LMRoman17-Regular-37" transform="translate(262.533185 0) scale(0.996264)"/>
      <use xlink:href="#LMRoman17-Regular-35" transform="translate(308.224134 0) scale(0.996264)"/>
      <use xlink:href="#LMRoman17-Regular-41" transform="translate(383.991231 0) scale(0.996264)"/>
      <use xlink:href="#LMRoman17-Regular-70" transform="translate(453.060909 0) scale(0.996264)"/>
      <use xlink:href="#LMRoman17-Regular-70" transform="translate(503.957997 0) scale(0.996264)"/>
      <use xlink:href="#LMRoman17-Regular-72" transform="translate(554.855084 0) scale(0.996264)"/>
      <use xlink:href="#LMRoman17-Regular-6f" transform="translate(590.136612 0) scale(0.996264)"/>
      <use xlink:href="#LMRoman17-Regular-78" transform="translate(633.225107 0) scale(0.996264)"/>
     </g>
    </g>
    <g id="line2d_58">
     <path d="M 154.842915 29.216616 
L 163.842915 29.216616 
L 172.842915 29.216616 
" style="fill: none; stroke: #6ece58; stroke-width: 3; stroke-linecap: square"/>
    </g>
    <g id="text_15">
     <!-- $\alpha=0.9$ Exact -->
     <g transform="translate(180.042915 32.366616) scale(0.09 -0.09)">
      <defs>
       <path id="LMRoman17-Regular-39" d="M 2688 2073 
C 2688 3817 1971 4179 1485 4179 
C 851 4179 243 3628 243 2778 
C 243 1991 762 1408 1414 1408 
C 1952 1408 2189 1903 2253 2112 
L 2253 1864 
C 2253 464 1670 31 1190 31 
C 1043 31 685 31 538 294 
C 704 268 826 357 826 518 
C 826 692 685 749 595 749 
C 538 749 365 723 365 506 
C 365 71 742 -128 1203 -128 
C 1939 -128 2688 674 2688 2073 
z
M 2240 2632 
C 2240 2182 2035 1510 1427 1510 
C 1254 1510 1011 1542 813 1922 
C 678 2169 678 2461 678 2771 
C 678 3146 678 3405 858 3684 
C 947 3817 1114 4032 1485 4032 
C 2240 4032 2240 2885 2240 2632 
z
" transform="scale(0.015625)"/>
      </defs>
      <use xlink:href="#LMMathItalic12-Regular-b" transform="scale(0.996264)"/>
      <use xlink:href="#LMRoman17-Regular-3d" transform="translate(90.355032 0) scale(0.996264)"/>
      <use xlink:href="#LMRoman17-Regular-30" transform="translate(189.74506 0) scale(0.996264)"/>
      <use xlink:href="#LMMathItalic12-Regular-3a" transform="translate(235.436008 0) scale(0.996264)"/>
      <use xlink:href="#LMRoman17-Regular-39" transform="translate(262.533185 0) scale(0.996264)"/>
      <use xlink:href="#LMRoman17-Regular-45" transform="translate(338.300283 0) scale(0.996264)"/>
      <use xlink:href="#LMRoman17-Regular-78" transform="translate(400.883832 0) scale(0.996264)"/>
      <use xlink:href="#LMRoman17-Regular-61" transform="translate(449.175045 0) scale(0.996264)"/>
      <use xlink:href="#LMRoman17-Regular-63" transform="translate(494.865993 0) scale(0.996264)"/>
      <use xlink:href="#LMRoman17-Regular-74" transform="translate(535.350802 0) scale(0.996264)"/>
     </g>
    </g>
    <g id="line2d_59">
     <path d="M 154.842915 41.760078 
L 163.842915 41.760078 
L 172.842915 41.760078 
" style="fill: none; stroke-dasharray: 11.1,4.8; stroke-dashoffset: 0; stroke: #6ece58; stroke-width: 3"/>
    </g>
    <g id="text_16">
     <!-- $\alpha=0.9$ Approx -->
     <g transform="translate(180.042915 44.910078) scale(0.09 -0.09)">
      <use xlink:href="#LMMathItalic12-Regular-b" transform="scale(0.996264)"/>
      <use xlink:href="#LMRoman17-Regular-3d" transform="translate(90.355032 0) scale(0.996264)"/>
      <use xlink:href="#LMRoman17-Regular-30" transform="translate(189.74506 0) scale(0.996264)"/>
      <use xlink:href="#LMMathItalic12-Regular-3a" transform="translate(235.436008 0) scale(0.996264)"/>
      <use xlink:href="#LMRoman17-Regular-39" transform="translate(262.533185 0) scale(0.996264)"/>
      <use xlink:href="#LMRoman17-Regular-41" transform="translate(338.300283 0) scale(0.996264)"/>
      <use xlink:href="#LMRoman17-Regular-70" transform="translate(407.369961 0) scale(0.996264)"/>
      <use xlink:href="#LMRoman17-Regular-70" transform="translate(458.267048 0) scale(0.996264)"/>
      <use xlink:href="#LMRoman17-Regular-72" transform="translate(509.164136 0) scale(0.996264)"/>
      <use xlink:href="#LMRoman17-Regular-6f" transform="translate(544.445664 0) scale(0.996264)"/>
      <use xlink:href="#LMRoman17-Regular-78" transform="translate(587.534158 0) scale(0.996264)"/>
     </g>
    </g>
    <g id="line2d_60">
     <path d="M 154.842915 54.30354 
L 163.842915 54.30354 
L 172.842915 54.30354 
" style="fill: none; stroke: #efe51c; stroke-width: 3; stroke-linecap: square"/>
    </g>
    <g id="text_17">
     <!-- $\alpha=1.0$ Exact -->
     <g transform="translate(180.042915 57.45354) scale(0.09 -0.09)">
      <use xlink:href="#LMMathItalic12-Regular-b" transform="scale(0.996264)"/>
      <use xlink:href="#LMRoman17-Regular-3d" transform="translate(90.355032 0) scale(0.996264)"/>
      <use xlink:href="#LMRoman17-Regular-31" transform="translate(189.74506 0) scale(0.996264)"/>
      <use xlink:href="#LMMathItalic12-Regular-3a" transform="translate(235.436008 0) scale(0.996264)"/>
      <use xlink:href="#LMRoman17-Regular-30" transform="translate(262.533185 0) scale(0.996264)"/>
      <use xlink:href="#LMRoman17-Regular-45" transform="translate(338.300283 0) scale(0.996264)"/>
      <use xlink:href="#LMRoman17-Regular-78" transform="translate(400.883832 0) scale(0.996264)"/>
      <use xlink:href="#LMRoman17-Regular-61" transform="translate(449.175045 0) scale(0.996264)"/>
      <use xlink:href="#LMRoman17-Regular-63" transform="translate(494.865993 0) scale(0.996264)"/>
      <use xlink:href="#LMRoman17-Regular-74" transform="translate(535.350802 0) scale(0.996264)"/>
     </g>
    </g>
    <g id="line2d_61">
     <path d="M 154.842915 66.847002 
L 163.842915 66.847002 
L 172.842915 66.847002 
" style="fill: none; stroke-dasharray: 11.1,4.8; stroke-dashoffset: 0; stroke: #efe51c; stroke-width: 3"/>
    </g>
    <g id="text_18">
     <!-- $\alpha=1.0$ Approx -->
     <g transform="translate(180.042915 69.997002) scale(0.09 -0.09)">
      <use xlink:href="#LMMathItalic12-Regular-b" transform="scale(0.996264)"/>
      <use xlink:href="#LMRoman17-Regular-3d" transform="translate(90.355032 0) scale(0.996264)"/>
      <use xlink:href="#LMRoman17-Regular-31" transform="translate(189.74506 0) scale(0.996264)"/>
      <use xlink:href="#LMMathItalic12-Regular-3a" transform="translate(235.436008 0) scale(0.996264)"/>
      <use xlink:href="#LMRoman17-Regular-30" transform="translate(262.533185 0) scale(0.996264)"/>
      <use xlink:href="#LMRoman17-Regular-41" transform="translate(338.300283 0) scale(0.996264)"/>
      <use xlink:href="#LMRoman17-Regular-70" transform="translate(407.369961 0) scale(0.996264)"/>
      <use xlink:href="#LMRoman17-Regular-70" transform="translate(458.267048 0) scale(0.996264)"/>
      <use xlink:href="#LMRoman17-Regular-72" transform="translate(509.164136 0) scale(0.996264)"/>
      <use xlink:href="#LMRoman17-Regular-6f" transform="translate(544.445664 0) scale(0.996264)"/>
      <use xlink:href="#LMRoman17-Regular-78" transform="translate(587.534158 0) scale(0.996264)"/>
     </g>
    </g>
   </g>
  </g>
 </g>
 <defs>
  <clipPath id="pf7159fd4fa">
   <rect x="28.883231" y="17.966616" width="222.276529" height="171.025363"/>
  </clipPath>
 </defs>
</svg>
